<svg xmlns="http://www.w3.org/2000/svg" viewBox="0 0 17.58 12.19"><defs><style>.cls-1{fill:#0baf68;}</style></defs><g id="Warstwa_2" data-name="Warstwa 2"><g id="menu_plaks" data-name="menu plaks"><path class="cls-1" d="M16.8,12.19H.78A.78.78,0,0,1,0,11.41V.78A.78.78,0,0,1,.78,0h16a.78.78,0,0,1,.78.78V11.41A.78.78,0,0,1,16.8,12.19ZM1.55,10.64H16V1.56H1.55Z"/><path class="cls-1" d="M8.79,7.33a.79.79,0,0,1-.46-.15l-8-5.77A.78.78,0,0,1,1.23.15L8.79,5.59,16.35.15a.77.77,0,0,1,1.08.17.78.78,0,0,1-.18,1.09l-8,5.77A.74.74,0,0,1,8.79,7.33Z"/><path class="cls-1" d="M16.62,12.19a.75.75,0,0,1-.57-.25L10.21,5.65a.78.78,0,0,1,0-1.1.78.78,0,0,1,1.1,0l5.84,6.3a.78.78,0,0,1-.57,1.3Z"/><path class="cls-1" d="M.78,12.19a.77.77,0,0,1-.56-1.31l6-6.3a.79.79,0,0,1,1.1,0,.78.78,0,0,1,0,1.1l-6,6.3A.77.77,0,0,1,.78,12.19Z"/></g></g></svg>