<svg xmlns="http://www.w3.org/2000/svg" viewBox="0 0 662.88 984.58"><defs><style>.cls-1{fill:#0baf68;}</style></defs><g id="Warstwa_2" data-name="Warstwa 2"><g id="Layer_1" data-name="Layer 1"><rect class="cls-1" x="355.9" y="966.46" width="189.46" height="17.89"/><path d="M12,886.44v16.43H2.35V856.23H19.42c11,0,17.82,4.94,17.82,14.94s-6.77,15.27-17.82,15.27Zm6-8c6.71,0,9.54-2.3,9.54-7.3,0-4.46-2.83-6.9-9.54-6.9H12v14.2Z"/><path d="M87.33,894.89h20v8H77.66V856.23h9.67Z"/><path d="M143.23,902.87l16.59-46.64h9.25l16.58,46.64H175.36l-2.9-8.86h-16l-2.91,8.86ZM159.05,886h10.78l-5.39-16.43Z"/><path d="M260.55,856.23v46.64h-8.08L233.88,874v28.86h-9.19V856.23h8l18.65,29.27V856.23Z"/><path d="M336.35,856.23v8H323.22v38.6h-9.67v-38.6H300.42v-8Z"/><path d="M386.51,902.87h-9.67V856.23h9.67Z"/><path d="M467,856.23v46.64h-8.09L440.34,874v28.86h-9.19V856.23h8l18.66,29.27V856.23Z"/><path d="M545.36,878.6v4.26c0,14.26-6.77,20.62-17.55,20.62s-18.24-6.36-18.24-20.62v-6c0-15.07,7.53-21.29,18.24-21.29,10,0,16,5.55,17.48,15.08H536c-.83-4.26-3.38-7.1-8.22-7.1-5.6,0-8.57,3.72-8.57,12.64v6.62c0,8.92,3,12.64,8.57,12.64s7.67-3.31,8.22-8.92h-8v-8Z"/><path d="M27.08,949.44c-2.07-3.18-4.56-4.73-9.39-4.73-4.35,0-6.7,2-6.7,5.14,0,3.64,3,5.27,9.39,6.82,10,2.43,14.44,6.08,14.44,14.33,0,7.64-5.25,13.58-16.44,13.58C10,984.58,4.22,982.35,0,977l7.4-5c2.55,3.1,5.45,4.66,10.36,4.66,5.52,0,7.39-2.37,7.39-5.2,0-3.25-2-5.07-9.74-7-9.4-2.44-14.1-6.83-14.1-14.53,0-7.37,5-13.12,16.31-13.12,7.6,0,13.33,2.5,16.72,7.64Z"/><path d="M86.23,967.55V984H76.56V937.34H93.62c11,0,17.83,4.93,17.83,14.94s-6.77,15.27-17.83,15.27Zm6-8c6.7,0,9.54-2.3,9.54-7.3,0-4.46-2.84-6.89-9.54-6.89h-6v14.19Z"/><path d="M143.51,984l16.58-46.64h9.26L185.93,984H175.64l-2.91-8.86h-16l-2.9,8.86Zm15.82-16.83h10.78l-5.39-16.43Z"/><path d="M248.6,951.8c-.9-4.39-3.52-7.09-8.22-7.09-5.6,0-8.57,3.72-8.57,12.64V964c0,8.65,3,12.64,8.57,12.64,4.84,0,7.19-2.37,8.22-7.1h9.19c-1.59,10.48-7.6,15.07-17.41,15.07-10.71,0-18.24-6.35-18.24-20.61v-6.62c0-14.4,7.53-20.62,18.24-20.62,9.46,0,15.89,4.87,17.48,15.07Z"/><path d="M328.89,937.34v8h-20v10.47h18v8h-18V976h20v8H299.18V937.34Z"/><path d="M582.64,538c-2.93-50.26-24.48-103.28-47.3-159.41-39.53-97.22-84.15-207-58.67-348.57.07-.35.13-.7.2-1h0c0-.23.09-.44.13-.66l0-.19c0-.16.07-.32.1-.48s0-.07,0-.1l.12-.57,0-.21c0-.15.07-.3.1-.46a2.17,2.17,0,0,0,0-.25l.09-.42c0-.09,0-.18.05-.28s.06-.25.08-.38,0-.21.05-.31.06-.24.08-.36,0-.22.05-.32.06-.23.08-.35,0-.22,0-.34.06-.22.08-.33,0-.23.06-.35,0-.21.07-.32,0-.23.06-.35a2.81,2.81,0,0,1,.08-.31c0-.13,0-.25.05-.37s.06-.2.08-.3,0-.25.05-.37.06-.2.08-.3,0-.25.05-.38.06-.19.08-.29,0-.28.07-.42l.06-.25c0-.14.05-.28.07-.42l.06-.25c0-.14.05-.29.07-.43l.06-.23c0-.13,0-.25.06-.38l0-.12c0-.06,0-.11,0-.17s0-.16,0-.24.05-.24.07-.36a.14.14,0,0,0,0-.07s0-.07,0-.1l.12-.59c0-.2.07-.39.09-.59a.68.68,0,0,0,0-.14c0-.19,0-.38,0-.56s0-.12,0-.19,0-.34,0-.51a1.7,1.7,0,0,1,0-.22c0-.16-.05-.33-.07-.49s0-.15,0-.23-.07-.3-.11-.44a2.44,2.44,0,0,0-.06-.26c0-.14-.09-.28-.14-.42l-.09-.25-.18-.39-.12-.26-.22-.37c0-.08-.09-.16-.14-.24l-.25-.35c-.06-.07-.11-.16-.17-.23s-.18-.21-.27-.32l-.2-.22-.29-.27L477,8.37l-.31-.24-.26-.2-.33-.2a2.68,2.68,0,0,0-.28-.18l-.34-.17-.32-.16-.32-.12L474.5,7l-.3-.08-.42-.11c-2.7-.58-5.38-1.11-8-1.61h-.08l-.39-.07L464.57,5C433.21-.84,403.8-1.56,377,2.84a191.43,191.43,0,0,0-76.62,30.3c-51.24,34.56-91,96.21-121.52,188.47-26.4,79.79-42.75,173-57.17,255.15-13,73.88-25.22,143.67-42.68,194-15,43.14-32.16,67.83-53.32,76.06l-.53.21-1,.34c-.46.16-.92.29-1.38.43l-.53.16-.76.2-.77.2-.51.12-.74.14-.8.15-.82.15-.82.13-.83.12-.84.12-.66.08h0l-.39,0-.11,0-.31,0-.17,0-.26,0-.21,0H13l-.25,0h-.17l-.28,0h-.15a6.36,6.36,0,0,0-.75.08l-.46.05-.46,0-.47,0-.44.05a7,7,0,0,0-1,.16h0c-.23.06-.46.12-.68.2l-.12,0-.56.22-.14.08-.5.25-.18.12-.42.27-.18.15-.38.29-.18.17c-.11.11-.23.21-.33.32l-.15.17c-.11.12-.22.24-.32.37l-.11.16c-.1.14-.21.28-.3.42s-.06.12-.1.18a3.83,3.83,0,0,0-.25.44,1.76,1.76,0,0,0-.09.2,3.82,3.82,0,0,0-.21.46l-.06.18c-.06.17-.12.33-.17.5s0,.14,0,.21-.09.34-.12.51,0,.14,0,.21a4.81,4.81,0,0,0-.07.53c0,.07,0,.15,0,.23s0,.34,0,.52h0c0,.06,0,.12,0,.18a5.07,5.07,0,0,0,.05.56,3.07,3.07,0,0,0,.07.42c0,.1,0,.2.05.3s.11.4.17.59l0,.11A7.4,7.4,0,0,0,8,764.43h0l.57.15.16,0,.49.07.26,0,.41,0h.45l.49,0h.21c.16,0,.31,0,.47,0h.23l.45,0h.26l.42,0h.28l.4,0h.31l.36,0h.46l.22,0h.48l.2,0h2.93l.49,0h.19l.77,0,1.38.07,1.39.07,1.85.11,1.51.1,2.3.17,1.25.12c15.09,1.54,33.54,4.67,53.87,8.12,43.78,7.45,100.54,17.1,161.11,17.1,14.94,0,30.12-.59,45.39-1.94,42.24-3.75,81.68-13.09,117.24-27.79a353,353,0,0,0,111.9-74.07C565.77,641.78,585.92,594.37,582.64,538ZM273,610.68c.22-.28.45-.54.66-.81,19.28-24,37-51,53.82-80.14,26.35-45.58,41.42-91.42,46.54-140.55,1.09-10.44,1.66-20.88,2.23-31.32.86-16,1.1-31.62,1.18-46.91,1,18.08,1.93,36.29,1.8,54.78-.38,55.38-9.55,109.51-45.41,165.12C313.9,561.7,293.78,588.35,273,610.68Zm82-235c1.25-10.32,2.05-20.65,2.87-30.95,1.48-18.52,2.23-36.49,2.94-53.93.35,20.29.86,40.85.16,61.85-1.83,54.58-11.27,108.45-44.71,163.66-18.43,30.42-36.89,57.15-56,80,17.73-24.5,34-51.75,49.7-80.82C334.58,469.85,349.17,424.12,355,375.65ZM285.22,625.31c.72-.8,1.44-1.58,2.16-2.39C308.05,599.62,327,573,344.89,544,373.06,498.44,388.6,452.5,393,402.7c.92-10.54,1.28-21.11,1.58-31.68.4-13.76.27-27.28-.07-40.61,1.42,16.06,2.63,32.16,2.94,48.42,1.08,56.2-7.83,110.6-46.12,166.59C329.82,576.83,307.89,603.44,285.22,625.31Zm50.84-263.18c1.42-10.22,2.44-20.43,3.51-30.59,2.28-21.48,3.73-42.13,5.35-62-.62,22.74-.68,46-2.13,69.93-3.26,53.77-13,107.38-44,162.19-17.11,30.23-34.11,57.2-51.65,80.57,16.13-24.94,31-52.28,45.47-81.18C315.35,455.56,329.45,409.93,336.06,362.13ZM297.06,640c1.35-1.34,2.71-2.68,4.05-4.06,22.06-22.63,42.28-48.83,61.21-77.63,30-45.6,46-91.67,49.61-142.12.76-10.65.91-21.34.95-32.06.05-11.74-.34-23.35-.94-34.84,1.67,14.18,3.06,28.35,3.69,42.6,2.56,57-6.09,111.7-46.82,168.06Q334,608.11,297.06,640Zm24.18-321.66c3.31-25,5.73-48.66,8.64-71.06-2,25.41-2.89,51.72-5.31,79.1-4.67,53-14.65,106.32-43.29,160.72-15.94,30.26-31.61,57.64-47.77,81.68,14.7-25.48,28.32-53.1,41.65-82A517.2,517.2,0,0,0,317.1,348.61C318.68,338.5,319.92,328.41,321.24,318.38ZM308.29,655c2.2-2,4.39-3.94,6.55-6,23.45-21.95,44.94-47.73,64.91-76.37,31.81-45.6,48.3-91.79,51.15-142.91.6-10.76.53-21.56.31-32.42-.21-9.92-.75-19.76-1.49-29.55,1.77,12.44,3.26,24.83,4.13,37.25,4,57.81-4.35,112.81-47.53,169.53C361.25,607.48,335.22,634.13,308.29,655Zm7.86-431.84c-4.13,28.48-6.1,58.49-9.79,90.16-6.07,52.15-16.32,105.27-42.59,159.25C249,503,234.53,530.91,219.69,555.71c13.35-26.13,25.76-54.13,38-83.23a627.58,627.58,0,0,0,40.4-137.4c1.74-10,3.21-20,4.79-29.86C307.59,275.91,311.34,248.52,316.15,223.16Zm3.05,446.68c3.14-2.53,6.29-5.1,9.38-7.75,24.83-21.28,47.59-46.63,68.61-75.11,33.64-45.6,50.59-91.92,52.68-143.7.44-10.87.16-21.79-.33-32.79-.38-8.32-1-16.59-1.82-24.84,1.8,10.86,3.31,21.67,4.34,32.48,5.56,58.61-2.6,113.93-48.24,171C376.79,622.93,348.47,649.55,319.2,669.84Zm-17-463.1c-5.89,29.07-9.23,60.24-14.06,93.48-7.46,51.35-18,104.22-41.89,157.78-13.77,30.84-27,59.44-40.64,85.15,12.09-26.94,23.38-55.51,34.68-85a806,806,0,0,0,38.86-136.61c1.91-9.89,3.61-19.74,5.43-29.5,6.48-34.68,12.1-66.41,19.66-94.93C303.55,200.3,302.86,203.5,302.21,206.74Zm40.1,468.4c26.23-20.6,50.26-45.52,72.31-73.85,35.47-45.59,52.88-92,54.21-144.49.28-11-.2-22-1-33.15-.46-6.73-1.11-13.44-1.89-20.14,1.72,9.28,3.2,18.51,4.3,27.72,7.08,59.41-.84,115.06-48.94,172.47-29.18,34.82-60,61.42-91.83,81.06C333.8,681.63,338.09,678.46,342.31,675.14Zm-48-504.27q-3.61,11.65-6.75,24c-7.13,28.33-11.86,59.1-17.64,92.21-8.82,50.55-19.61,103.18-41.18,156.31-12.78,31.47-24.92,61-37.38,87.76,10.89-27.92,21.12-57.29,31.49-87.34A1122.8,1122.8,0,0,0,260.2,308c2.09-9.77,4-19.51,6.06-29.13,8.22-38.31,15.92-72.68,26.2-102.74C293.07,174.37,293.7,172.62,294.33,170.87Zm44.9,528.77c1-.63,1.95-1.25,2.91-1.89,4.67-3.1,9.33-6.24,13.91-9.55,27.61-19.93,52.92-44.42,76-72.6,37.31-45.57,55.28-92.16,55.75-145.28a321,321,0,0,0-1.61-33.51q-.74-7.86-1.79-15.72c1.59,7.79,3,15.53,4.08,23.24,8.62,60.2.93,116.2-49.64,173.94C408,653.53,375,679.68,341.18,698.58ZM273,183.09c-8.34,27.59-14.48,58-21.22,90.93-10.18,49.76-21.22,102.14-40.48,154.84-11.83,32.38-22.92,63.08-34.27,91.19l.53-1.57c9.56-28.7,18.61-58.58,27.93-88.94,13.93-45.38,25.55-90.52,35.79-135,2.25-9.67,4.4-19.28,6.7-28.76,9.29-38.23,18.58-72.16,30.24-101.5q3.84-9.62,8-18.52Q278.94,163.35,273,183.09Zm75.29,531.42c2.32-1.33,4.64-2.68,6.94-4.07,4.91-3,9.79-6,14.6-9.19,29-19.25,55.59-43.3,79.7-71.34,39.16-45.54,57.57-92.29,57.29-146.06A301.9,301.9,0,0,0,504.52,450c-.46-4-1-7.9-1.59-11.86,1.42,6.48,2.7,12.92,3.76,19.32,10.17,61,2.7,117.35-50.35,175.41-32.21,35.25-66.76,60.79-102.25,78.79Q351.17,713.1,348.24,714.51ZM258.33,171.26c-9.54,26.89-17.1,56.85-24.81,89.66C222,309.89,210.7,362,193.74,414.29c-10.91,33.62-21,65.86-31.21,95.58.41-1.48.83-2.95,1.24-4.44,8.17-29.38,16-59.67,24.23-90.2,12.21-45.36,23.27-90.4,34.26-134.24,2.42-9.56,4.81-19.05,7.35-28.4C240,214.46,250.85,181,263.89,152.35a326.6,326.6,0,0,1,15.56-30.09A382.33,382.33,0,0,0,258.33,171.26ZM368.21,723.14c5.15-2.83,10.27-5.75,15.3-8.83,30.39-18.58,58.26-42.18,83.4-70.09,41-45.51,59.86-92.41,58.83-146.85a282.29,282.29,0,0,0-2.9-34.24c-.35-2.54-.73-5.07-1.14-7.61q1.77,7.55,3.21,15c11.73,61.75,4.46,118.5-51.06,176.87-33.54,35.26-69.72,60.16-106.85,77.27-3.46,1.59-6.92,3.09-10.39,4.55Q362.48,726.29,368.21,723.14ZM243.7,159.44C233,185.65,224,215.16,215.3,247.82c-12.84,48.2-24.38,100.07-39.06,151.9-10,35.12-19,69.16-28.05,100.81.62-2.72,1.23-5.42,1.85-8.16,6.78-30.05,13.43-60.74,20.53-91.45,10.49-45.33,21-90.27,32.72-133.46,2.59-9.45,5.21-18.81,8-28,11.45-38,23.92-71,38.32-99A309.09,309.09,0,0,1,275,99.08,352.87,352.87,0,0,0,243.7,159.44Zm137.54,576.4c5.4-2.7,10.74-5.51,16-8.48,31.78-17.9,60.93-41.06,87.09-68.82C527.2,613.06,546.49,566,544.7,510.9a268.36,268.36,0,0,0-3.53-34.62c-.22-1.36-.47-2.72-.71-4.08.95,3.83,1.85,7.64,2.66,11.44,13.3,62.52,6.33,119.76-51.76,178.34-34.82,35.32-72.68,59.53-111.45,75.75-5.45,2.27-10.92,4.37-16.4,6.34Q372.54,740.19,381.24,735.84ZM193,226.27c21.7-65.58,48-114.93,79.64-149.44q-24.25,29.4-43.52,70.78c-11.89,25.57-22.29,54.62-32,87.1-14.15,47.45-25.93,99-38.36,150.44-8.72,36.05-16.49,71.46-24.11,104.66l-.63,2.68q1.15-6.56,2.32-13.17C151.34,393.63,166.89,305,193,226.27ZM508.86,676.55a335.48,335.48,0,0,1-139.5,82.19q12.75-4.66,24.91-10.2,8.48-3.84,16.71-8.12a359.14,359.14,0,0,0,90.8-67.57c44.76-45.38,64.42-92.67,61.89-148.43a256.57,256.57,0,0,0-4.17-35l-.06-.32C576.67,555.42,571.77,615.23,508.86,676.55Z"/><path class="cls-1" d="M662.88,656H281.58V274.65h381.3ZM306,631.49H638.43V299.1H306Z"/></g></g></svg>