<svg xmlns="http://www.w3.org/2000/svg" viewBox="0 0 61.76 14.89"><defs><style>.cls-1{fill:none;stroke:#0baf68;stroke-miterlimit:10;stroke-width:2.64px;}</style></defs><g id="Warstwa_2" data-name="Warstwa 2"><g id="logo"><line class="cls-1" x1="61.76" y1="13.57" x2="40.3" y2="13.57"/><path d="M1.36,3.49V5.35H.27V.07H2.2c1.24,0,2,.56,2,1.69s-.77,1.73-2,1.73ZM2,2.59c.76,0,1.08-.26,1.08-.83S2.8,1,2,1H1.36V2.59Z"/><path d="M9.89,4.45h2.27v.9H8.79V.07h1.1Z"/><path d="M16.22,5.35,18.1.07h1L21,5.35H19.86l-.33-1H17.72l-.33,1ZM18,3.44h1.22l-.61-1.86Z"/><path d="M29.51.07V5.35h-.92l-2.1-3.27V5.35h-1V.07h.9l2.12,3.31V.07Z"/><path d="M38.09.07V1H36.6V5.35H35.51V1H34V.07Z"/><path d="M43.77,5.35H42.68V.07h1.09Z"/><path d="M52.89.07V5.35H52l-2.1-3.27V5.35h-1V.07h.9l2.12,3.31V.07Z"/><path d="M61.76,2.6v.48c0,1.62-.77,2.34-2,2.34s-2.06-.72-2.06-2.34V2.41C57.71.7,58.56,0,59.77,0a1.84,1.84,0,0,1,2,1.71h-1A.88.88,0,0,0,59.77.9c-.63,0-1,.42-1,1.43v.75c0,1,.34,1.44,1,1.44s.87-.38.93-1h-.9V2.6Z"/><path d="M3.07,10.62A1.11,1.11,0,0,0,2,10.09c-.49,0-.76.22-.76.58s.35.6,1.07.77c1.12.28,1.63.69,1.63,1.63S3.35,14.6,2.08,14.6A2.4,2.4,0,0,1,0,13.74l.84-.57A1.34,1.34,0,0,0,2,13.7c.63,0,.84-.27.84-.59s-.23-.57-1.11-.79C.68,12,.15,11.54.15,10.67S.71,9.19,2,9.19a2.11,2.11,0,0,1,1.89.86Z"/><path d="M9.77,12.68v1.86H8.67V9.25H10.6c1.25,0,2,.56,2,1.7s-.77,1.73-2,1.73Zm.68-.91c.76,0,1.08-.26,1.08-.82s-.32-.78-1.08-.78H9.77v1.6Z"/><path d="M16.25,14.54l1.88-5.29h1.05l1.88,5.29H19.89l-.33-1H17.75l-.32,1ZM18,12.63h1.22l-.61-1.86Z"/><path d="M28.15,10.89a.88.88,0,0,0-.93-.8c-.63,0-1,.42-1,1.43v.75c0,1,.34,1.43,1,1.43a.86.86,0,0,0,.93-.8h1a1.78,1.78,0,0,1-2,1.7c-1.21,0-2.06-.72-2.06-2.33v-.75c0-1.63.85-2.33,2.06-2.33a1.83,1.83,0,0,1,2,1.7Z"/><path d="M37.25,9.25v.92H35v1.18h2v.9H35v1.38h2.27v.91H33.88V9.25Z"/></g></g></svg>