<svg xmlns="http://www.w3.org/2000/svg" viewBox="0 0 27.73 29.79"><defs><style>.cls-1{fill:#143011;}</style></defs><g id="Warstwa_2" data-name="Warstwa 2"><g id="Warstwa_1-2" data-name="Warstwa 1"><path class="cls-1" d="M27.73,8.18v5.17h0a.19.19,0,0,0,0,.13c-.07,1.21-.17,2.42-.36,3.63a5,5,0,0,1-.27,1.21,4.66,4.66,0,0,1-1.46,1.93,10.65,10.65,0,0,1-5.48,2.42c-1.19.18-2.39.29-3.59.37a28.93,28.93,0,0,1-5.42-.21A29.45,29.45,0,0,1,8,22.28c-.12,0-.12,0-.12.11A7.88,7.88,0,0,0,8,23.58a3.52,3.52,0,0,0,1.06,2,4.14,4.14,0,0,0,2,.95,12.42,12.42,0,0,0,2.11.26,17.4,17.4,0,0,0,4.77-.35c.37-.08.74-.18,1.11-.28a.2.2,0,0,1,0,.07c0,.75.07,1.49.11,2.24a.18.18,0,0,1-.13.2,13,13,0,0,1-2.89.87,14.34,14.34,0,0,1-2,.25s-.09,0-.1.05H11.53l0,0h0a1.16,1.16,0,0,0-.32,0,23.41,23.41,0,0,1-4.38-.79,7.53,7.53,0,0,1-4.07-2.72,10.56,10.56,0,0,1-1.71-3.44,24.47,24.47,0,0,1-.95-5.89c0-.47,0-.94-.07-1.4,0,0,0-.1,0-.11V8.86H0a.18.18,0,0,0,0-.12A9.52,9.52,0,0,1,.22,7.43,9.14,9.14,0,0,1,2.27,3,6.1,6.1,0,0,1,5.07,1.1a18.12,18.12,0,0,1,3-.69C8.92.28,9.77.19,10.63.13c.49,0,1-.07,1.46-.08,0,0,.1,0,.13,0h3.4s0,0,0,0h0l.12,0c1.13,0,2.25.13,3.37.27a19.05,19.05,0,0,1,3.06.61,6.21,6.21,0,0,1,2.2,1A8.23,8.23,0,0,1,27.1,5.71a10.8,10.8,0,0,1,.58,2.37S27.65,8.18,27.73,8.18ZM22.79,18c0-2.54,0-5.08,0-7.62A6.88,6.88,0,0,0,22.42,8a4.21,4.21,0,0,0-2.49-2.61,5,5,0,0,0-2.36-.25,3.86,3.86,0,0,0-3,1.9c-.22.38-.45.77-.7,1.18-.25-.43-.49-.82-.73-1.22a3.8,3.8,0,0,0-2-1.65,5,5,0,0,0-2.21-.21A4.1,4.1,0,0,0,5.45,7.74,6.36,6.36,0,0,0,5,10.33V18c0,.13,0,.16.16.16H7.94c.13,0,.16,0,.16-.16,0-2.46,0-4.9,0-7.34a4.58,4.58,0,0,1,.09-1A1.76,1.76,0,0,1,9.33,8.21a2.89,2.89,0,0,1,.93-.11,1.93,1.93,0,0,1,1.9,1.44,4.22,4.22,0,0,1,.19,1.28V15c0,.12,0,.15.15.15.92,0,1.85,0,2.78,0,.12,0,.16,0,.16-.15,0-1.38,0-2.75,0-4.12a5.17,5.17,0,0,1,.11-1,2,2,0,0,1,1.25-1.58A2.62,2.62,0,0,1,18,8.12a1.69,1.69,0,0,1,1.53,1.24,3.46,3.46,0,0,1,.15,1.05c0,2.51,0,5,0,7.54,0,.13,0,.16.17.16h2.78C22.75,18.11,22.79,18.08,22.79,18Z"/></g></g></svg>