<svg xmlns="http://www.w3.org/2000/svg" viewBox="0 0 42.8 42.88"><defs><style>.cls-1{fill:none;}.cls-1,.cls-3{stroke:#0baf68;stroke-linecap:round;stroke-linejoin:round;}.cls-2,.cls-3{fill:#fff;}</style></defs><g id="Warstwa_2" data-name="Warstwa 2"><g id="icons"><path class="cls-1" d="M17.76,6.66A10.59,10.59,0,0,1,20,6.49c1.47.24,2.09-.48,2.47-1.79a17,17,0,0,1,1.16-2.83A2.12,2.12,0,0,1,26.68.76c3.14,1.33,4.47,1.68,2.49,5.91l-.92,2c1.06,1,1.92,1.93,2.87,2.73a1.33,1.33,0,0,0,1.11.11c1.11-.38,2.17-.87,3.27-1.28,1.52-.56,2.59-.06,3.28,1.5,1.61,3.64,1.36,4.29-2.23,5.73-2,.81-2,.81-2,3.12a4.56,4.56,0,0,1,0,.91c-.21,1,.23,1.4,1.08,1.72a32.57,32.57,0,0,1,3,1.35A2.41,2.41,0,0,1,40,27.74c-.19.57-.43,1.12-.66,1.66-.73,1.72-1.83,2.18-3.54,1.5a3.38,3.38,0,0,1-.58-.27c-2.14-1.5-4-1.46-5.49.87a1.82,1.82,0,0,0-.28,1.3c.43,1.31,1,2.58,1.5,3.87a2.28,2.28,0,0,1-1.31,3.24c-3.46,1.58-4.24,1.25-5.69-2.37l-.15-.37c-1.15-2.86-1.26-2.94-4.19-2.62-.27,0-.59.39-.73.68-.61,1.36-1.15,2.75-1.74,4.11a2.28,2.28,0,0,1-3.26,1.38,3.68,3.68,0,0,1-.35-.15c-3.29-1.42-3.54-2-2.18-5.37l.43-1.06c1.06-2.6,1.07-2.61-1.13-4.42a1.35,1.35,0,0,0-1.12-.12c-1.37.49-2.71,1.1-4.08,1.6-1.87.69-2.91.2-3.73-1.71a13.2,13.2,0,0,1-.61-1.58,2.32,2.32,0,0,1,1.46-3.18c1.32-.54,2.63-1.09,4-1.58.61-.22.71-.58.75-1.23.16-2.06-.59-3.29-2.62-3.79A12.84,12.84,0,0,1,2.11,17,2.47,2.47,0,0,1,.73,13.6c1.33-3.68,2-4,5.56-2.36l.35.16c2.89,1.3,2.91,1.31,4.66-1.25a1.52,1.52,0,0,0,0-1.15c-.49-1.35-1.07-2.66-1.57-4C9.1,3.31,9.53,2.26,11.1,1.6,14.77.06,15.19.24,16.71,4.05Z"/><rect class="cls-2" x="25.86" y="23.89" width="10.45" height="14.19" transform="translate(-12.8 31.06) rotate(-45)"/><path class="cls-3" d="M41.58,41.66h0A2.48,2.48,0,0,1,38,41.58l-14.7-16,2.23-2.23,16,14.7A2.48,2.48,0,0,1,41.58,41.66Z"/><path class="cls-3" d="M24.86,30.45a10.32,10.32,0,0,0,5.39-13.77,10.41,10.41,0,0,0-13.78-5.91,10.65,10.65,0,0,0-5.32,13.92A10.52,10.52,0,0,0,24.86,30.45Z"/><path class="cls-3" d="M17.51,13.21a8,8,0,0,0-4,10.47"/></g></g></svg>