<svg xmlns="http://www.w3.org/2000/svg" viewBox="0 0 26.82 32.59"><defs><style>.cls-1{fill:#0baf68;}</style></defs><g id="Warstwa_2" data-name="Warstwa 2"><g id="apla"><path class="cls-1" d="M12.68,26.17H22.85c2.25-4-.25-8-2.16-13.18h-8Z"/><path class="cls-1" d="M11.71,12h8.64A21.42,21.42,0,0,1,19.4.28C2-3.44,7.52,31.3,0,31.49c3.41-.08,13.76,4,21.15-3.17a10.12,10.12,0,0,0,1.05-1.18H11.71Z"/><path class="cls-1" d="M26.82,12H20.35c.11.33.23.65.34,1h5.16V26.17h-3a8.21,8.21,0,0,1-.65,1h4.62Z"/></g></g></svg>