<svg xmlns="http://www.w3.org/2000/svg" xmlns:xlink="http://www.w3.org/1999/xlink" viewBox="0 0 372.87 1220.4"><defs><style>.cls-1{fill:url(#linear-gradient);}.cls-2{fill:url(#linear-gradient-2);}.cls-3{fill:url(#linear-gradient-3);}.cls-4{fill:url(#radial-gradient);}.cls-5{fill:url(#linear-gradient-4);}.cls-6{fill:url(#linear-gradient-5);}.Graphic-Style-14{fill:url(#linear-gradient-6);}.cls-7{fill:url(#radial-gradient-2);}.cls-8{fill:url(#radial-gradient-3);}.cls-10,.cls-12,.cls-14,.cls-15,.cls-9{fill:none;}.cls-10,.cls-12{stroke:#0baf68;stroke-width:0.5px;}.cls-10,.cls-14,.cls-15{stroke-miterlimit:10;}.cls-11{fill:#0baf68;}.cls-12{stroke-linecap:round;stroke-linejoin:round;}.Graphic-Style-15{fill:url(#linear-gradient-7);}.cls-13{fill:url(#radial-gradient-4);}.cls-14{stroke:url(#linear-gradient-8);}.cls-15{stroke:url(#linear-gradient-9);}</style><linearGradient id="linear-gradient" x1="75.85" y1="327.88" x2="85.22" y2="327.88" gradientUnits="userSpaceOnUse"><stop offset="0" stop-color="#0baf68"/><stop offset="0.58" stop-color="#7fd5af"/><stop offset="1" stop-color="#d0efe0"/></linearGradient><linearGradient id="linear-gradient-2" x1="75.59" y1="324.63" x2="81.46" y2="315.14" xlink:href="#linear-gradient"/><linearGradient id="linear-gradient-3" x1="247.13" y1="622.75" x2="114.49" y2="273.33" gradientUnits="userSpaceOnUse"><stop offset="0" stop-color="#0baf68"/><stop offset="0.33" stop-color="#ace3d2"/><stop offset="0.6" stop-color="#0baf68"/><stop offset="1" stop-color="#fff"/></linearGradient><radialGradient id="radial-gradient" cx="212.32" cy="400.63" r="67.08" gradientUnits="userSpaceOnUse"><stop offset="0" stop-color="#ace3d2"/><stop offset="1" stop-color="#fff" stop-opacity="0"/></radialGradient><linearGradient id="linear-gradient-4" x1="152.28" y1="327.47" x2="178.99" y2="306.57" gradientUnits="userSpaceOnUse"><stop offset="0" stop-color="#0baf68"/><stop offset="0.66" stop-color="#aee4cd"/><stop offset="1" stop-color="#fff"/></linearGradient><linearGradient id="linear-gradient-5" x1="154.21" y1="326.5" x2="161.43" y2="319.92" gradientUnits="userSpaceOnUse"><stop offset="0" stop-color="#0baf68"/><stop offset="0.53" stop-color="#8edab9" stop-opacity="0.46"/><stop offset="1" stop-color="#fff" stop-opacity="0"/></linearGradient><linearGradient id="linear-gradient-6" x1="334.18" y1="1175.16" x2="257.6" y2="1215.09" xlink:href="#linear-gradient-4"/><radialGradient id="radial-gradient-2" cx="175.4" cy="1205.15" r="183.37" xlink:href="#linear-gradient-4"/><radialGradient id="radial-gradient-3" cx="351.28" cy="1215.86" r="63.04" xlink:href="#linear-gradient-5"/><linearGradient id="linear-gradient-7" x1="275.64" y1="286.94" x2="277.26" y2="284.31" xlink:href="#linear-gradient"/><radialGradient id="radial-gradient-4" cx="186.24" cy="459.56" r="194.47" gradientUnits="userSpaceOnUse"><stop offset="0" stop-color="#fff"/><stop offset="0.33" stop-color="#fff" stop-opacity="0.68"/><stop offset="0.99" stop-color="#fff" stop-opacity="0"/></radialGradient><linearGradient id="linear-gradient-8" x1="157.21" y1="273.01" x2="157.73" y2="272.18" xlink:href="#linear-gradient"/><linearGradient id="linear-gradient-9" x1="113.44" y1="196.63" x2="113.95" y2="195.8" xlink:href="#linear-gradient"/></defs><g id="Warstwa_2" data-name="Warstwa 2"><g id="art"><path class="cls-1" d="M84.44,323.73a76.74,76.74,0,0,1,.78,12.94A6.19,6.19,0,0,0,84,333.48,22.43,22.43,0,0,0,81.43,331a26,26,0,0,1-4-4.59,7.19,7.19,0,0,1-1.59-4.33c.09-1.57,1.4-3.15,3-3C81,319.31,82.34,323.29,84.44,323.73Z"/><path class="cls-2" d="M68.51,308.14c.67.1,30.36,4.54,16.7,28.88a2.67,2.67,0,0,0,0-.4,76.74,76.74,0,0,0-.78-12.94,14.08,14.08,0,0,0-4.49-8.59A34.37,34.37,0,0,0,68.51,308.14Z"/><path class="cls-3" d="M319.22,469.73c15.75,28,10.76,68.49-2.41,97.19-31.94,69.59-128.5,70.71-120.17,42,6.27-21.65-57.07-22.17-63.68-5.81-2.87,7.11-14.39,22.74-20.62,9.37s.51-21.63,8.54-25.29c13.58-6.21,50.47-13.75,142.92-25.31,12.13-1.52,17.38-11.51,18.56-14.32C289.76,530,271.3,497,203,430.33,155.7,384.24,128.41,325.06,115,260a255,255,0,0,0,47.69,80.06c21.32,24.22,45.66,43.33,70.75,59.88,19.41,12.8,39.39,24.17,58,39C301.84,447.21,312,456.78,319.22,469.73Z"/><path class="cls-4" d="M319.22,469.73c15.75,28,10.76,68.49-2.41,97.19-31.94,69.59-128.5,70.71-120.17,42,6.27-21.65-57.07-22.17-63.68-5.81-2.87,7.11-14.39,22.74-20.62,9.37s.51-21.63,8.54-25.29c13.58-6.21,50.47-13.75,142.92-25.31,12.13-1.52,17.38-11.51,18.56-14.32C289.76,530,271.3,497,203,430.33,155.7,384.24,128.41,325.06,115,260a255,255,0,0,0,47.69,80.06c21.32,24.22,45.66,43.33,70.75,59.88,19.41,12.8,39.39,24.17,58,39C301.84,447.21,312,456.78,319.22,469.73Z"/><path class="cls-5" d="M158.21,307.86c12.22,3.44,23.27,6.21,32.38,7.17-10.35,8.48-20.52,15-3.83,30.42,7.56,7,18.93,12.95,4.42,22.74-17-14.2-22.06-20.3-27.06-26.4-15.72-19.16-25.1-28.07-41.19-62.63C129.53,290.35,140.1,302.77,158.21,307.86Z"/><path class="cls-6" d="M158.21,307.86c12.22,3.44,23.27,6.21,32.38,7.17-10.35,8.48-20.52,15-3.83,30.42,7.56,7,18.93,12.95,4.42,22.74-17-14.2-22.06-20.3-27.06-26.4-15.72-19.16-25.1-28.07-41.19-62.63C129.53,290.35,140.1,302.77,158.21,307.86Z"/><path class="Graphic-Style-14" d="M337.47,1192.51c6.92,11.36-3.69,25.53-16.5,21.93l-.25-.07c-8.36-2.47-14.9-9-20.18-15.94-3-4-5.79-8.22-9.51-11.55-8.23-7.4-19.93-9.4-31-9.91v0q16.86-1.23,35.15-2.91C318.3,1171.9,330.75,1181.48,337.47,1192.51Z"/><path class="cls-7" d="M308.9,1157.32c15.94.56,58.06,16.42,39.27,44.93-4.44-12.52-10.88-22.69-27.34-27.14-9.51-2.56-21.68-1-35,0-16.32,1.32-34.5,2.7-53.37,3.79-55.41,3.19-119.21,4.68-162.68-10.24C141.28,1180.05,186.88,1153.06,308.9,1157.32Z"/><path class="cls-8" d="M308.9,1157.32c15.94.56,58.06,16.42,39.27,44.93-4.44-12.52-10.88-22.69-27.34-27.14-9.51-2.56-21.68-1-35,0-16.32,1.32-34.5,2.7-53.37,3.79-55.41,3.19-119.21,4.68-162.68-10.24C141.28,1180.05,186.88,1153.06,308.9,1157.32Z"/><line class="cls-9" x1="287.93" y1="882.46" x2="287.16" y2="883.23"/><path class="cls-10" d="M307.34,582.79c-25.61,32.65-44.88,48.08-63.29,65.84-44.18,42.62-76.25,61.68-145.85,50.83"/><path class="cls-11" d="M104.42,166.63a557,557,0,0,0,8.19,81.19,405.45,405.45,0,0,0,22.25,78.44,314.66,314.66,0,0,0,39.72,71.07,293.29,293.29,0,0,0,26.7,30.83c9.68,9.57,19.37,19.16,28.75,29s18.58,19.95,27.22,30.5c4.32,5.28,8.54,10.64,12.48,16.23a131.75,131.75,0,0,1,10.65,17.54,61.66,61.66,0,0,1,3.79,9.64,35.22,35.22,0,0,1,1.11,5.11,24.58,24.58,0,0,1,.23,5.29,18.83,18.83,0,0,1-3.52,10,25.38,25.38,0,0,1-8,6.92c-6.14,3.47-12.9,5.32-19.6,6.79s-13.51,2.42-20.3,3.26c-27.13,3.17-54.35,4.85-80.82,10.26a202.25,202.25,0,0,0-38.46,11.45,126.89,126.89,0,0,0-17.6,9,102,102,0,0,0-15.48,11.83,5,5,0,1,1-6.83-7.31l.21-.19c11.05-9.18,23.78-15.77,36.86-20.59a221,221,0,0,1,40.22-10.1c13.58-2.18,27.21-3.56,40.82-4.6s27.21-1.79,40.72-3.11c6.74-.66,13.47-1.46,20.1-2.71s13.19-2.94,19-6.06a22.55,22.55,0,0,0,7.46-6.14,16.86,16.86,0,0,0,3.27-8.92,23,23,0,0,0-.14-4.9,32.82,32.82,0,0,0-1-4.87,59.67,59.67,0,0,0-3.53-9.41,129.69,129.69,0,0,0-10.25-17.5q-5.76-8.39-12.2-16.32c-8.55-10.58-17.64-20.72-27-30.64s-18.9-19.59-28.54-29.21a293.07,293.07,0,0,1-26.72-30.9A314.79,314.79,0,0,1,134.5,326.4a404.87,404.87,0,0,1-22.2-78.52,562,562,0,0,1-8.38-81.24.24.24,0,0,1,.24-.25.25.25,0,0,1,.26.24Z"/><path class="cls-11" d="M372.87.28a117,117,0,0,1-14.11,42.08,98.15,98.15,0,0,1-30,32.56c-6.15,4.24-13,7.29-19.86,10.11A151.58,151.58,0,0,1,287.71,92q-5.43,1.33-10.94,2.21c-1.83.3-3.68.54-5.53.78l-5.55.47q-11.12.9-22.23,1.6c-14.82.94-29.66,1.66-44.49,2.4l-22.25,1.16-5.55.31c-.93,0-1.84.19-2.76.3s-1.83.26-2.74.4c-3.67.57-7.31,1.27-10.91,2.16A93.92,93.92,0,0,0,134,111.48l-2.45,1.31-2.4,1.39-2.36,1.45c-.79.49-1.48,1.1-2.23,1.65l-1.1.84c-.36.28-.69.61-1,.91-.68.62-1.38,1.22-2,1.86a53.53,53.53,0,0,0-3.71,4.11,48.07,48.07,0,0,0-6,9.3,56,56,0,0,0-4,10.34,68.16,68.16,0,0,0-2,10.9,80.37,80.37,0,0,0-.27,11.08.25.25,0,1,1-.5,0,80,80,0,0,1,.28-11.16,68.25,68.25,0,0,1,2-11,56.24,56.24,0,0,1,4-10.43,48.49,48.49,0,0,1,6-9.39,51,51,0,0,1,3.76-4.15c.67-.65,1.38-1.26,2.07-1.88.35-.31.68-.64,1-.93l1.11-.85c.75-.55,1.46-1.18,2.25-1.66l2.38-1.47,2.42-1.4,2.46-1.32a95,95,0,0,1,20.89-7.77c3.61-.9,7.26-1.6,10.94-2.17.92-.14,1.84-.29,2.76-.4a26.23,26.23,0,0,1,2.78-.3l5.57-.32,22.24-1.16c14.84-.74,29.67-1.45,44.49-2.4,7.41-.47,14.82-1,22.22-1.6l5.54-.47c1.84-.23,3.67-.47,5.5-.77q5.49-.89,10.9-2.2a149.77,149.77,0,0,0,21.12-6.91c6.85-2.81,13.66-5.84,19.77-10.06a97.57,97.57,0,0,0,29.85-32.39,116.58,116.58,0,0,0,14-41.89.25.25,0,0,1,.28-.22.25.25,0,0,1,.22.28Z"/><path class="cls-12" d="M104.17,166.64c1.46,21.67-7.06,34.43-15.18,43.13-9.84,10.56-24.51,16.19-37.81,23s-26.55,16.45-29.52,30c-3.4,15.52,8.8,31.34,24.76,37.95,11.35,4.71,25,6.11,33.53,14.35,4.12,4,5.26,7.69,5.26,22.06"/><path class="cls-12" d="M114.12,255.6s6.45,41.68,45,52.52c98.51,27.72,80.13-23.43,116.4-22.06"/><circle class="Graphic-Style-15" cx="276.19" cy="286.05" r="2.56"/></g><g id="gaszenie"><path class="cls-13" d="M372.48,472.24c0,104.76-78.05,189.68-182.8,189.68S0,577,0,472.24s2.51-215,189.68-215C294.43,257.19,372.48,367.49,372.48,472.24Z"/></g><g id="text"><path class="cls-10" d="M152.71,683.45C139,652.25,98.51,651.68,92,651.64s-13.23,2-18.07,6.42c-7.08,6.41-9.38,16.73-16,23.59a23.88,23.88,0,0,1-21.17,6.89A22,22,0,0,1,20.06,674c-2.36-7.37-.28-18.84,4.39-25,4-5.29,9-7.41,15-8.38,14.55-2.37,29.5-1.63,44,.91,7,1.23,14,2.88,21.11,3.24,6.79.34,17.86-10.18,11.43-24C126.54,641.6,148.45,666.65,152.71,683.45Z"/><line class="cls-14" x1="157.46" y1="272.6" x2="157.47" y2="272.6"/><line class="cls-15" x1="113.69" y1="196.21" x2="113.7" y2="196.22"/><path class="cls-10" d="M152.71,683.45c-4.26-16.8-26.17-41.85-36.74-62.7,0,0-14.14-23.09,1.86-31.93"/><path class="cls-10" d="M351.41,1220.4s.35-51.28-50.12-46.63c-262.34,24.14-281.49-17.33-288.71-87,0,0-18.9-408.13,70.55-390.07,60.37,12.19,73.85,3.63,69.59-13.21"/></g></g></svg>