<svg xmlns="http://www.w3.org/2000/svg" viewBox="0 0 11.85 10.43"><defs><style>.cls-1{fill:#0baf68;}</style></defs><g id="Warstwa_2" data-name="Warstwa 2"><g id="GETINTOUCH"><path class="cls-1" d="M11.53.23a8.3,8.3,0,0,1-1.27.53A.39.39,0,0,1,9.84.67,2.3,2.3,0,0,0,6.35,1a2.92,2.92,0,0,0-.54,2c0,.28,0,.28-.27.25A6.76,6.76,0,0,1,1,.74C1,.67.91.58.8.53A2.74,2.74,0,0,0,.55,2.37,2.58,2.58,0,0,0,1.52,4,2.24,2.24,0,0,1,.44,3.7,2.72,2.72,0,0,0,2.33,6.32a2.16,2.16,0,0,1-1,.06,2.67,2.67,0,0,0,.82,1.27,2.4,2.4,0,0,0,1.42.53A4.79,4.79,0,0,1,0,9.25l.14.11a6.53,6.53,0,0,0,8-.67,7.78,7.78,0,0,0,2.44-5.76.5.5,0,0,1,.19-.43,4.23,4.23,0,0,0,1-1.23l0,0h0v0c-.1,0-.16,0-.24.07a3.12,3.12,0,0,1-1,.25l.22-.19A2.23,2.23,0,0,0,11.53.23h0A0,0,0,0,0,11.53.23Z"/></g></g></svg>