<?xml version="1.0" encoding="utf-8"?>
<!-- Generator: Adobe Illustrator 25.1.0, SVG Export Plug-In . SVG Version: 6.00 Build 0)  -->
<svg version="1.1" id="listeg" xmlns="http://www.w3.org/2000/svg" xmlns:xlink="http://www.w3.org/1999/xlink" x="0px" y="0px"
	 viewBox="0 0 375 2959" style="enable-background:new 0 0 375 2959;" xml:space="preserve">
<style type="text/css">
	.Graphic_x0020_Style_x0020_26{fill:url(#SVGID_1_);}
	.Graphic_x0020_Style_x0020_27{fill:url(#SVGID_2_);}
	.Graphic_x0020_Style_x0020_28{fill:url(#SVGID_3_);}
	.Graphic_x0020_Style_x0020_29{fill:url(#SVGID_4_);}
	.Graphic_x0020_Style_x0020_30{fill:url(#SVGID_5_);}
	.Graphic_x0020_Style_x0020_31{fill:none;stroke:#0BAF68;stroke-width:0.5;stroke-miterlimit:10;}
	.Graphic_x0020_Style_x0020_32{fill:url(#SVGID_6_);}
	.st0{fill:url(#SVGID_7_);}
	.st1{fill:url(#SVGID_8_);}
	.st2{fill:url(#SVGID_9_);}
	.st3{fill:url(#SVGID_10_);}
	.st4{fill:url(#SVGID_11_);}
	.st5{fill:url(#SVGID_12_);}
	.st6{fill:url(#SVGID_13_);}
	.st7{fill:url(#SVGID_14_);}
	.st8{fill:url(#SVGID_15_);}
	.st9{fill:none;stroke:#0BAF68;stroke-width:0.5;stroke-miterlimit:10;}
	.st10{fill:url(#SVGID_16_);}
	.st11{fill:url(#SVGID_17_);}
	.st12{fill:url(#SVGID_18_);}
	.st13{fill:url(#SVGID_19_);}
	.st14{fill:url(#SVGID_20_);}
	.st15{fill:url(#SVGID_21_);}
	.st16{fill:none;stroke:#BEFF03;stroke-miterlimit:10;}
	.st17{fill:none;stroke:#C5FF1F;stroke-width:0.9167;stroke-miterlimit:10;}
	.st18{fill:none;stroke:#CCFF3B;stroke-width:0.8333;stroke-miterlimit:10;}
	.st19{fill:none;stroke:#D4FF57;stroke-width:0.75;stroke-miterlimit:10;}
	.st20{fill:none;stroke:#DBFF73;stroke-width:0.6667;stroke-miterlimit:10;}
	.st21{fill:none;stroke:#E2FF8F;stroke-width:0.5833;stroke-miterlimit:10;}
	.st22{fill:none;stroke:#E9FFAB;stroke-width:0.5;stroke-miterlimit:10;}
	.st23{fill:none;stroke:#F1FFC7;stroke-width:0.4167;stroke-miterlimit:10;}
	.st24{fill:none;stroke:#F8FFE3;stroke-width:0.3333;stroke-miterlimit:10;}
	.st25{fill:none;stroke:#FFFFFF;stroke-width:0.25;stroke-miterlimit:10;}
	.st26{fill:none;stroke:#FFFFFF;stroke-miterlimit:10;}
	.st27{fill:url(#SVGID_22_);}
	.st28{fill:url(#SVGID_23_);}
	.st29{fill:url(#SVGID_24_);}
	.st30{fill:url(#SVGID_25_);}
	.st31{fill:url(#SVGID_26_);}
	.st32{fill:url(#SVGID_27_);}
	.st33{fill:url(#SVGID_28_);}
	.st34{fill:url(#SVGID_29_);}
	.st35{fill:url(#SVGID_30_);}
	.st36{fill:url(#SVGID_31_);}
	.st37{fill:#0BAF68;}
	.st38{fill:none;stroke:#0BAF68;stroke-width:4;stroke-linecap:round;stroke-miterlimit:10;}
	.st39{fill:none;stroke:#0BAF68;stroke-width:4;stroke-linecap:round;stroke-linejoin:round;stroke-miterlimit:10;}
	.st40{fill:none;stroke:#0BAF68;stroke-width:10;stroke-linecap:round;stroke-linejoin:round;stroke-miterlimit:10;}
	.st41{fill:url(#SVGID_32_);}
	.st42{fill:url(#SVGID_33_);}
	.st43{fill:url(#SVGID_34_);}
	.st44{fill:url(#SVGID_35_);}
	.st45{fill:url(#SVGID_36_);}
	.st46{fill:url(#SVGID_37_);}
	.st47{fill:url(#SVGID_38_);}
	.st48{fill:url(#SVGID_39_);}
	.st49{fill:none;stroke:url(#SVGID_40_);stroke-linecap:round;stroke-miterlimit:10;}
	.st50{fill:url(#SVGID_41_);}
	.st51{fill:none;}
	.st52{fill:url(#SVGID_42_);}
	.st53{fill:url(#SVGID_43_);}
	.st54{fill:url(#SVGID_44_);}
	.st55{fill:url(#SVGID_45_);}
	.st56{fill:url(#SVGID_46_);}
	.st57{fill:url(#SVGID_47_);}
	.st58{fill:url(#SVGID_48_);}
	.st59{fill:url(#SVGID_49_);}
</style>
<linearGradient id="SVGID_1_" gradientUnits="userSpaceOnUse" x1="-1435.6451" y1="-2066.4839" x2="-1435.1188" y2="-2067.3342">
	<stop  offset="0" style="stop-color:#0BAF68"/>
	<stop  offset="0.5778" style="stop-color:#7FD5AF"/>
	<stop  offset="1" style="stop-color:#D0EFE0"/>
</linearGradient>
<linearGradient id="SVGID_2_" gradientUnits="userSpaceOnUse" x1="-1435.6451" y1="-2066.4839" x2="-1434.6451" y2="-2066.4839">
	<stop  offset="0" style="stop-color:#0BAF68"/>
	<stop  offset="0.5028" style="stop-color:#FFFFFF"/>
	<stop  offset="1" style="stop-color:#0BAF68"/>
</linearGradient>
<linearGradient id="SVGID_3_" gradientUnits="userSpaceOnUse" x1="-1435.6451" y1="-2066.4839" x2="-1435.1188" y2="-2067.3342">
	<stop  offset="0" style="stop-color:#0BAF68"/>
	<stop  offset="0.5778" style="stop-color:#7FD5AF"/>
	<stop  offset="1" style="stop-color:#D0EFE0"/>
</linearGradient>
<linearGradient id="SVGID_4_" gradientUnits="userSpaceOnUse" x1="-1435.6451" y1="-2066.4839" x2="-1435.9044" y2="-2065.5181">
	<stop  offset="0" style="stop-color:#0BAF68"/>
	<stop  offset="0.397" style="stop-color:#7FD5AF;stop-opacity:0.4222"/>
	<stop  offset="0.6872" style="stop-color:#D0EFE0;stop-opacity:0"/>
	<stop  offset="1" style="stop-color:#0BAF68;stop-opacity:0.3"/>
</linearGradient>
<linearGradient id="SVGID_5_" gradientUnits="userSpaceOnUse" x1="-1435.6451" y1="-2066.4839" x2="-1435.1188" y2="-2067.3342">
	<stop  offset="0" style="stop-color:#0BAF68"/>
	<stop  offset="0.5778" style="stop-color:#7FD5AF"/>
	<stop  offset="1" style="stop-color:#D0EFE0"/>
</linearGradient>
<linearGradient id="SVGID_6_" gradientUnits="userSpaceOnUse" x1="-1435.6451" y1="-2066.4839" x2="-1436.5319" y2="-2066.0217">
	<stop  offset="0" style="stop-color:#0BAF68"/>
	<stop  offset="0.6561" style="stop-color:#AEE4CD"/>
	<stop  offset="1" style="stop-color:#FFFFFF"/>
</linearGradient>
<linearGradient id="SVGID_7_" gradientUnits="userSpaceOnUse" x1="342.6332" y1="1901.8615" x2="322.7622" y2="1909.3452">
	<stop  offset="0" style="stop-color:#0BAF68"/>
	<stop  offset="0.6561" style="stop-color:#AEE4CD"/>
	<stop  offset="1" style="stop-color:#FFFFFF"/>
</linearGradient>
<path class="st0" d="M364.3,1979.1c-46.2,4.9-20.4-96.8-67.9-145.2c0,0,54.9,32.1,64.5,145.1"/>
<linearGradient id="SVGID_8_" gradientUnits="userSpaceOnUse" x1="330.9806" y1="1908.0829" x2="349.3031" y2="1901.6312">
	<stop  offset="0" style="stop-color:#0BAF68"/>
	<stop  offset="0.6561" style="stop-color:#AEE4CD"/>
	<stop  offset="1" style="stop-color:#FFFFFF"/>
</linearGradient>
<path class="st1" d="M364.3,1979c-38.7,2.6-16-94.4-64.5-142.7C299.8,1836.4,354.7,1866.1,364.3,1979"/>
<linearGradient id="SVGID_9_" gradientUnits="userSpaceOnUse" x1="360.9595" y1="1963.4011" x2="349.0663" y2="1969.6008">
	<stop  offset="0" style="stop-color:#0BAF68"/>
	<stop  offset="0.6561" style="stop-color:#AEE4CD"/>
	<stop  offset="1" style="stop-color:#FFFFFF"/>
</linearGradient>
<circle class="st2" cx="356" cy="1966" r="4.8"/>
<linearGradient id="SVGID_10_" gradientUnits="userSpaceOnUse" x1="357.2073" y1="1946.9438" x2="342.8498" y2="1954.428">
	<stop  offset="0" style="stop-color:#0BAF68"/>
	<stop  offset="0.6561" style="stop-color:#AEE4CD"/>
	<stop  offset="1" style="stop-color:#FFFFFF"/>
</linearGradient>
<circle class="st3" cx="351.3" cy="1950" r="5.8"/>
<linearGradient id="SVGID_11_" gradientUnits="userSpaceOnUse" x1="354.513" y1="1928.9038" x2="336.3194" y2="1938.3876">
	<stop  offset="0" style="stop-color:#0BAF68"/>
	<stop  offset="0.6561" style="stop-color:#AEE4CD"/>
	<stop  offset="1" style="stop-color:#FFFFFF"/>
</linearGradient>
<circle class="st4" cx="347" cy="1932.8" r="7.3"/>
<linearGradient id="SVGID_12_" gradientUnits="userSpaceOnUse" x1="63.4774" y1="1457.0961" x2="58.3551" y2="1464.6515">
	<stop  offset="0" style="stop-color:#0BAF68"/>
	<stop  offset="0.6561" style="stop-color:#AEE4CD"/>
	<stop  offset="1" style="stop-color:#FFFFFF"/>
</linearGradient>
<path class="st5" d="M59.6,1447c-6.8-3.5-14.7,2.8-14.7,2.8c0.2,0.1,16.2,27.2,34.3,18.9C79.2,1468.7,68.8,1451.7,59.6,1447z"/>
<g>
	<linearGradient id="SVGID_13_" gradientUnits="userSpaceOnUse" x1="131.342" y1="1287.8354" x2="56.5141" y2="1465.4534">
		<stop  offset="0" style="stop-color:#0BAF68"/>
		<stop  offset="0.352" style="stop-color:#D0EFE0"/>
		<stop  offset="0.5312" style="stop-color:#7FD5AF"/>
		<stop  offset="0.7765" style="stop-color:#0BAF68"/>
		<stop  offset="1" style="stop-color:#BDE9D4"/>
	</linearGradient>
	<path class="st6" d="M111.1,1278.9c-1.4-0.5-2.9,0.5-3.1,2c-5.1,40.4-22,90.2-51.9,148.7c-4,7.8-6.6,12-10.5,20.2
		c39.3-20.5,30,126.6,67.1-168.3C112.8,1280.3,112.1,1279.2,111.1,1278.9L111.1,1278.9z"/>
	<linearGradient id="SVGID_14_" gradientUnits="userSpaceOnUse" x1="69.17" y1="1368.6017" x2="120.4603" y2="1378.8597">
		<stop  offset="0" style="stop-color:#0BAF68;stop-opacity:0"/>
		<stop  offset="0.514" style="stop-color:#D0EFE0"/>
		<stop  offset="0.7192" style="stop-color:#7FD5AF;stop-opacity:0.5778"/>
		<stop  offset="1" style="stop-color:#0BAF68;stop-opacity:0"/>
	</linearGradient>
	<path class="st7" d="M111.1,1278.9c-1.4-0.5-2.9,0.5-3.1,2c-5.1,40.4-22,90.2-51.9,148.7c-4,7.8-6.6,12-10.5,20.2
		c39.3-20.5,30,126.6,67.1-168.3C112.8,1280.3,112.1,1279.2,111.1,1278.9L111.1,1278.9z"/>
</g>
<linearGradient id="SVGID_15_" gradientUnits="userSpaceOnUse" x1="91.4262" y1="1336.9028" x2="39.5553" y2="1318.7094">
	<stop  offset="0" style="stop-color:#0BAF68"/>
	<stop  offset="0.6561" style="stop-color:#AEE4CD"/>
	<stop  offset="1" style="stop-color:#FFFFFF"/>
</linearGradient>
<path class="st8" d="M109.3,1238c0.8,11.7,0.6,24.2-0.8,37.6c-4,40.7-18.3,89.6-49.7,149.4l-0.8-0.2c-4.3,2.7-10,2.6-14.6,0.6
	c-4.7-2-8.4-5.8-11.2-10c-4.2-6.3-6.6-13.8-6.8-21.3c-0.5-15.9,6.3-32.7,18.8-42.6C60,1338.7,100.5,1338.6,109.3,1238z"/>
<path class="st9" d="M37,897.4c-100.4,100.3,202,222.8,3.7,559.7c-33.7,57.3-44.6,210.3,9.7,288.7c33.3,48.1,98.7,82,162.5,73
	c58.8-8.3,146.2,10,153.6,191.7c2.5,61.5,0.6,278.8,0.6,278.8"/>
<linearGradient id="SVGID_16_" gradientUnits="userSpaceOnUse" x1="234.5664" y1="1738.9446" x2="262.4484" y2="1804.7643">
	<stop  offset="0" style="stop-color:#0BAF68"/>
	<stop  offset="0.3938" style="stop-color:#7FD5AF"/>
	<stop  offset="0.6816" style="stop-color:#D0EFE0"/>
	<stop  offset="1" style="stop-color:#0BAF68"/>
</linearGradient>
<path class="st10" d="M116.5,1803.4c40.1-25.5,87.1-46.6,166.5-39c41.9,4,43.2-36.8,49.9-84.9c1.4-10.4,4.7-23.2,7.7-33.5
	c-7.8,29.9-14.9,88.4,7.7,109.7c22.6,21.3-57.4-4.2-70.8,48.5C266.8,1846,202.5,1750.2,116.5,1803.4z"/>
<path class="Graphic_x0020_Style_x0020_31" d="M203.9,2400H35.6c-14.3,0-25.9,11.5-26,25.9C9,2504-0.2,2727.5,25.9,2759.5"/>
<path class="Graphic_x0020_Style_x0020_31" d="M9.8,2251.7v-215.1c0-173.3,114.3-284.9,261.6-273.1c62,5,48.5-65.8,68.6-116
	c24.6-61.5,61.8-155.5-49.7-223.3c-180.5-109.8-136.8-154.3-44.1-223.6c71.3-53.3,112.3-114.9,102.2-199.5
	c-1.3-11.3-6.9-25.4-17.7-38.1c-6.5-7.8-15.6-15.1-24.6-21.6c-7.5-5.4-32.6-19.1-60.7-32.1c-40.1-18.5-85.3-36.6-86.3-36.8"/>
<path class="st9" d="M344.9,910.4c-70.2-84.6-210.2-82.9-113.9-177.2c51-49.9,150.3-75.9,106.8-139.1"/>
<g>
	<linearGradient id="SVGID_17_" gradientUnits="userSpaceOnUse" x1="162.8506" y1="999.864" x2="235.4356" y2="856.1528">
		<stop  offset="0" style="stop-color:#D0EFE0;stop-opacity:0"/>
		<stop  offset="0.2905" style="stop-color:#0BAF68;stop-opacity:0.8"/>
		<stop  offset="0.5326" style="stop-color:#7FD5AF;stop-opacity:0.3378"/>
		<stop  offset="0.7095" style="stop-color:#D0EFE0;stop-opacity:0"/>
		<stop  offset="1" style="stop-color:#0BAF68;stop-opacity:0.5"/>
	</linearGradient>
	<path class="st11" d="M195.2,670.3C170.7,802.8,95.5,828,283.8,876.4c124.6,32,90.2,152.7,5.5,197.1
		c151.7-127.2-52-153.8-189.4-230.6C-2.5,785.5,161,770.3,195.2,670.3z"/>
	<linearGradient id="SVGID_18_" gradientUnits="userSpaceOnUse" x1="214.494" y1="896.4907" x2="274.0475" y2="751.283">
		<stop  offset="0" style="stop-color:#D0EFE0;stop-opacity:0"/>
		<stop  offset="0.5084" style="stop-color:#0BAF68;stop-opacity:0.8"/>
		<stop  offset="0.7924" style="stop-color:#7FD5AF;stop-opacity:0.3378"/>
		<stop  offset="1" style="stop-color:#D0EFE0;stop-opacity:0"/>
	</linearGradient>
	<path class="st12" d="M195.2,670.3C170.7,802.8,95.5,828,283.8,876.4c124.6,32,90.2,152.7,5.5,197.1
		c151.7-127.2-52-153.8-189.4-230.6C-2.5,785.5,161,770.3,195.2,670.3z"/>
	<radialGradient id="SVGID_19_" cx="146.6678" cy="863.28" r="61.9029" gradientUnits="userSpaceOnUse">
		<stop  offset="0.2961" style="stop-color:#0BAF68;stop-opacity:0.8"/>
		<stop  offset="0.7028" style="stop-color:#7FD5AF;stop-opacity:0.3378"/>
		<stop  offset="1" style="stop-color:#D0EFE0;stop-opacity:0"/>
	</radialGradient>
	<path class="st13" d="M195.2,670.3C170.7,802.8,95.5,828,283.8,876.4c124.6,32,90.2,152.7,5.5,197.1
		c151.7-127.2-52-153.8-189.4-230.6C-2.5,785.5,161,770.3,195.2,670.3z"/>
	<radialGradient id="SVGID_20_" cx="305.4372" cy="1049.1591" r="113.1436" gradientUnits="userSpaceOnUse">
		<stop  offset="0.2961" style="stop-color:#0BAF68;stop-opacity:0.8"/>
		<stop  offset="0.7028" style="stop-color:#7FD5AF;stop-opacity:0.3378"/>
		<stop  offset="1" style="stop-color:#D0EFE0;stop-opacity:0"/>
	</radialGradient>
	<path class="st14" d="M195.2,670.3C170.7,802.8,95.5,828,283.8,876.4c124.6,32,90.2,152.7,5.5,197.1
		c151.7-127.2-52-153.8-189.4-230.6C-2.5,785.5,161,770.3,195.2,670.3z"/>
	<radialGradient id="SVGID_21_" cx="230.7097" cy="981.2903" r="130.6376" gradientUnits="userSpaceOnUse">
		<stop  offset="0.2961" style="stop-color:#0BAF68;stop-opacity:0.8"/>
		<stop  offset="0.7028" style="stop-color:#7FD5AF;stop-opacity:0.3378"/>
		<stop  offset="1" style="stop-color:#D0EFE0;stop-opacity:0"/>
	</radialGradient>
	<path class="st15" d="M195.2,670.3C170.7,802.8,95.5,828,283.8,876.4c124.6,32,90.2,152.7,5.5,197.1
		c151.7-127.2-52-153.8-189.4-230.6C-2.5,785.5,161,770.3,195.2,670.3z"/>
</g>
<g>
	<g>
		<path class="st16" d="M133.5,860.8c-167-72.4-52.9-182.4-52.9-182.4"/>
		<path class="st17" d="M93.5,677.8C91.6,688.7-20,791.5,136.4,860.3"/>
		<path class="st18" d="M106.3,677.1c-3.8,21.8-113,117.4,32.9,182.6"/>
		<path class="st19" d="M119.2,676.5c-5.7,32.7-112.4,121.1,23,182.8"/>
		<path class="st20" d="M132,675.8c-7.6,43.7-111.9,124.8,13,182.9"/>
		<path class="st21" d="M144.9,675.1c-9.5,54.6-111.3,128.5,3,183"/>
		<path class="st22" d="M157.7,674.5c-11.4,65.5-110.8,132.2-7,183.2"/>
		<path class="st23" d="M170.6,673.8c-13.2,76.4-110.2,135.9-16.9,183.3"/>
		<path class="st24" d="M183.4,673.1c-15.1,87.3-109.7,139.6-26.9,183.4"/>
		<path class="st25" d="M196.3,672.5c-17,98.2-109.1,143.3-36.9,183.5"/>
	</g>
	<g>
		<path class="st26" d="M133.5,860.8c-167-72.4-52.9-182.4-52.9-182.4"/>
		<path class="st26" d="M93.5,677.8C91.6,688.7-20,791.5,136.4,860.3"/>
		<path class="st26" d="M106.3,677.1c-3.8,21.8-113,117.4,32.9,182.6"/>
		<path class="st26" d="M119.2,676.5c-5.7,32.7-112.4,121.1,23,182.8"/>
		<path class="st26" d="M132,675.8c-7.6,43.7-111.9,124.8,13,182.9"/>
		<path class="st26" d="M144.9,675.1c-9.5,54.6-111.3,128.5,3,183"/>
		<path class="st26" d="M157.7,674.5c-11.4,65.5-110.8,132.2-7,183.2"/>
		<path class="st26" d="M170.6,673.8c-13.2,76.4-110.2,135.9-16.9,183.3"/>
		<path class="st26" d="M183.4,673.1c-15.1,87.3-109.7,139.6-26.9,183.4"/>
		<path class="st26" d="M196.3,672.5c-17,98.2-109.1,143.3-36.9,183.5"/>
	</g>
</g>
<linearGradient id="SVGID_22_" gradientUnits="userSpaceOnUse" x1="131.0382" y1="663.1202" x2="130.6511" y2="691.3782">
	<stop  offset="0" style="stop-color:#0BAF68"/>
	<stop  offset="0.5778" style="stop-color:#7FD5AF"/>
	<stop  offset="1" style="stop-color:#D0EFE0"/>
</linearGradient>
<path class="st27" d="M195.2,670.3c-10.4,21.2-38,31.8-70.2,31.8s-57.4-12.2-58.4-29.6c13.8-8.1,21.5,4.8,57.6,3.5
	C156.5,674.8,195.2,655.2,195.2,670.3z"/>
<g>
	<linearGradient id="SVGID_23_" gradientUnits="userSpaceOnUse" x1="130.268" y1="702.1085" x2="145.1712" y2="643.4633">
		<stop  offset="0" style="stop-color:#0BAF68"/>
		<stop  offset="0.6561" style="stop-color:#AEE4CD"/>
		<stop  offset="1" style="stop-color:#FFFFFF"/>
	</linearGradient>
	<path class="st28" d="M179.3,694.9c-25.6,22.5-64.9,7.7-85.7,40.8c-13.6,21.7-7.1-15.2-7.1-40.8s20.8-46.4,46.4-46.4
		S179.3,669.3,179.3,694.9z"/>
	<radialGradient id="SVGID_24_" cx="154.2581" cy="674.0702" r="45.4905" gradientUnits="userSpaceOnUse">
		<stop  offset="0" style="stop-color:#FFFFFF"/>
		<stop  offset="0.3439" style="stop-color:#AEE4CD;stop-opacity:0.6561"/>
		<stop  offset="1" style="stop-color:#0BAF68;stop-opacity:0"/>
	</radialGradient>
	<path class="st29" d="M179.3,694.9c-25.6,22.5-64.9,7.7-85.7,40.8c-13.6,21.7-7.1-15.2-7.1-40.8s20.8-46.4,46.4-46.4
		S179.3,669.3,179.3,694.9z"/>
</g>
<linearGradient id="SVGID_25_" gradientUnits="userSpaceOnUse" x1="118.8433" y1="739.8564" x2="52.1805" y2="700.8756">
	<stop  offset="0" style="stop-color:#0BAF68"/>
	<stop  offset="0.5778" style="stop-color:#7FD5AF"/>
	<stop  offset="1" style="stop-color:#D0EFE0"/>
</linearGradient>
<path class="st30" d="M66.6,672.5c0,0-102.1,96.1,32.4,169.9l-0.5-0.2c-72.2-40.2-34.1-68,13.9-98.8c34.2-22,72.3-44.8,82.9-73.1
	C195.2,670.3,146.7,742.3,66.6,672.5z"/>
<g>
	<linearGradient id="SVGID_26_" gradientUnits="userSpaceOnUse" x1="343.0889" y1="1012.8794" x2="270.2559" y2="1005.4023">
		<stop  offset="0" style="stop-color:#0BAF68"/>
		<stop  offset="0.397" style="stop-color:#7FD5AF;stop-opacity:0.4222"/>
		<stop  offset="0.6872" style="stop-color:#D0EFE0;stop-opacity:0"/>
		<stop  offset="1" style="stop-color:#0BAF68;stop-opacity:0.3"/>
	</linearGradient>
	<path class="st31" d="M309.1,943.3c0.7,0.7-1.8,10.4,2.2,16.5c4.3,6.4,15,13.2,12.2,29.4c-5,28.4-27.5,13.5-27.5,52.8
		c0,16.5-3.3,26.3-6.7,31.6C364,1011.3,351.9,974.1,309.1,943.3z"/>
	<radialGradient id="SVGID_27_" cx="312.602" cy="1056.9814" r="48.8854" gradientUnits="userSpaceOnUse">
		<stop  offset="0" style="stop-color:#0BAF68"/>
		<stop  offset="0.9441" style="stop-color:#0BAF68;stop-opacity:0"/>
	</radialGradient>
	<path class="st32" d="M309.1,943.3c0.7,0.7-1.8,10.4,2.2,16.5c4.3,6.4,15,13.2,12.2,29.4c-5,28.4-27.5,13.5-27.5,52.8
		c0,16.5-3.3,26.3-6.7,31.6C364,1011.3,351.9,974.1,309.1,943.3z"/>
	<radialGradient id="SVGID_28_" cx="319.7162" cy="996.2048" r="36.6932" gradientUnits="userSpaceOnUse">
		<stop  offset="0" style="stop-color:#FFFFFF"/>
		<stop  offset="1" style="stop-color:#D0EFE0;stop-opacity:0"/>
	</radialGradient>
	<path class="st33" d="M309.1,943.3c0.7,0.7-1.8,10.4,2.2,16.5c4.3,6.4,15,13.2,12.2,29.4c-5,28.4-27.5,13.5-27.5,52.8
		c0,16.5-3.3,26.3-6.7,31.6C364,1011.3,351.9,974.1,309.1,943.3z"/>
</g>
<path class="Graphic_x0020_Style_x0020_31" d="M309,943.5c-3.2,26.2,17.4,18.3,14.4,45.8c-3.1,28.6-39.9,25.3-50.1,19"/>
<linearGradient id="SVGID_29_" gradientUnits="userSpaceOnUse" x1="255.5958" y1="1394.4156" x2="281.9107" y2="1351.907">
	<stop  offset="0" style="stop-color:#0BAF68"/>
	<stop  offset="0.5778" style="stop-color:#7FD5AF"/>
	<stop  offset="1" style="stop-color:#D0EFE0"/>
</linearGradient>
<path class="st34" d="M293.6,1391.3c6.7,34.4,40.9,62.9,56.9,84.6c2.1,2.8-2.1,5.9-4.3,3.3c-13.9-17.1-30.4-37.7-55.5-55.2
	c-11-7.7-21.1-15-30.4-22c-6.2-4.6-12-9.1-17.5-13.5c-3.2-2.6-6.3-5.1-9.3-7.6c-9-7.4-16.9-14.5-23.9-21.2c-2.2-2.1-4.3-4.2-6.3-6.2
	c-12.1-12.3-20.7-23.5-26.3-33.8c-4.6-8.5-7.1-16.4-7.8-23.9C190.5,1331.1,272.6,1283.7,293.6,1391.3z"/>
<linearGradient id="SVGID_30_" gradientUnits="userSpaceOnUse" x1="207.4702" y1="1312.2461" x2="212.2479" y2="1287.02">
	<stop  offset="0" style="stop-color:#0BAF68"/>
	<stop  offset="0.5746" style="stop-color:#7FD5AF;stop-opacity:0.4222"/>
	<stop  offset="0.9944" style="stop-color:#D0EFE0;stop-opacity:0"/>
</linearGradient>
<path class="st35" d="M172.2,1273.2c0,0-4.3,10.3-3,22.7c13,21.6,49,12.1,79.7,26.4c-10.1-12.5-24.7-21.3-40.5-24.2
	c-4.6-0.9-9.3-1.3-13.8-2.7C194.7,1295.3,172.2,1289.7,172.2,1273.2z"/>
<linearGradient id="SVGID_31_" gradientUnits="userSpaceOnUse" x1="249.2958" y1="1293.2261" x2="233.4741" y2="1352.1561">
	<stop  offset="0" style="stop-color:#0BAF68"/>
	<stop  offset="0.397" style="stop-color:#7FD5AF;stop-opacity:0.4222"/>
	<stop  offset="0.6872" style="stop-color:#D0EFE0;stop-opacity:0"/>
	<stop  offset="1" style="stop-color:#0BAF68;stop-opacity:0.3"/>
</linearGradient>
<path class="st36" d="M172.2,1273.2c-0.9,2-3.9,11.8-2.7,22.8c0.7,7.5,3.2,15.4,7.8,23.9c5.6,10.3,14.2,21.5,26.3,33.8
	c2,2,4.1,4.1,6.3,6.2c7,6.7,14.9,13.8,23.9,21.2c3,2.5,6.1,5,9.3,7.5c5.5,4.3,11.3,8.8,17.5,13.5c9.3,7,19.5,14.3,30.4,22
	c1.9,1.4,3.9,2.7,5.8,4.1c-2-1.3-4.1-2.6-6.3-3.9C177.7,1355.6,152.6,1312.8,172.2,1273.2L172.2,1273.2z"/>
<circle class="st37" cx="364" cy="1573" r="2.3"/>
<circle class="st37" cx="358.1" cy="1498.9" r="2.3"/>
<path class="st38" d="M364.8,1523.3c3,24.8,0.8,35.7,0.8,35.7"/>
<path class="st39" d="M63.1,1857c0,0-26.8,39.8-32.7,61.1"/>
<line class="st40" x1="360.2" y1="2422.5" x2="360.2" y2="2442.8"/>
<path class="st39" d="M17.5,959.7c0,0,5,22.2,12.8,37.5"/>
<linearGradient id="SVGID_32_" gradientUnits="userSpaceOnUse" x1="21.9945" y1="1690.9426" x2="-2.3618" y2="1702.4799">
	<stop  offset="0" style="stop-color:#D0EFE0"/>
	<stop  offset="0.4222" style="stop-color:#7FD5AF"/>
	<stop  offset="1" style="stop-color:#0BAF68"/>
</linearGradient>
<path class="st41" d="M12,1599c0.1,46.8,9.3,102,38.1,146.5c4.9,7.7,10.7,14.4,16.7,21l0,0C-7.1,1789.3,12,1599,12,1599L12,1599z"/>
<linearGradient id="SVGID_33_" gradientUnits="userSpaceOnUse" x1="27.0034" y1="1687.3701" x2="64.5959" y2="1673.4183">
	<stop  offset="0" style="stop-color:#0BAF68"/>
	<stop  offset="0.5778" style="stop-color:#7FD5AF"/>
	<stop  offset="1" style="stop-color:#D0EFE0"/>
</linearGradient>
<path class="st42" d="M12,1599c1.1,17.9,8.4,48.7,42.4,71.9c49.9,34.1-7.7,65.6,12.6,95.7c-6-6.6-11.9-13.4-16.8-21.1
	c-28.8-44.6-38.1-95.7-38.1-142.4C12,1601.7,12,1600.3,12,1599z"/>
<linearGradient id="SVGID_34_" gradientUnits="userSpaceOnUse" x1="110.515" y1="1476.7366" x2="140.7086" y2="1467.4463" gradientTransform="matrix(0.9606 -0.2778 0.2778 0.9606 -446.9331 381.4491)">
	<stop  offset="0" style="stop-color:#0BAF68"/>
	<stop  offset="0.6561" style="stop-color:#AEE4CD"/>
	<stop  offset="1" style="stop-color:#FFFFFF"/>
</linearGradient>
<path class="st43" d="M68.8,1766.1C90.2,1778.9,83,1745.2,68.8,1766.1L68.8,1766.1z"/>
<linearGradient id="SVGID_35_" gradientUnits="userSpaceOnUse" x1="19.2641" y1="1694.8584" x2="43.6031" y2="1685.8254">
	<stop  offset="0" style="stop-color:#0BAF68"/>
	<stop  offset="0.5778" style="stop-color:#7FD5AF"/>
	<stop  offset="1" style="stop-color:#D0EFE0"/>
</linearGradient>
<path class="st44" d="M38.7,1682.8c10.2-15.8-21.8-26.3-23-30.8c0,0,0,0,0,0c0,0,0,0,0,0c3.5,21-1.2,74.9,25.8,78.8
	C33.4,1714.7,30,1696.2,38.7,1682.8z"/>
<circle class="st9" cx="216.8" cy="939.6" r="3"/>
<linearGradient id="SVGID_36_" gradientUnits="userSpaceOnUse" x1="111.3998" y1="1275.7017" x2="112.5069" y2="1273.9132">
	<stop  offset="0" style="stop-color:#0BAF68"/>
	<stop  offset="0.5778" style="stop-color:#7FD5AF"/>
	<stop  offset="1" style="stop-color:#D0EFE0"/>
</linearGradient>
<circle class="st45" cx="111.8" cy="1275.1" r="1.7"/>
<path class="st9" d="M9.8,2090.3c0,28.1,18.5,26.8,18.5,26.8h328.4c0,0,11.1-0.3,11.1,11.7"/>
<path class="st9" d="M9.8,2144.1c0,28.1,18.5,26.8,18.5,26.8l324.3,0c0,0,15.1-0.9,15.1,15.1"/>
<path class="st9" d="M9.8,2251.7c0,28.1,18.5,26.8,18.5,26.8h324.1c0,0,14.2-0.4,14.2,17"/>
<path class="st9" d="M9.8,2194.5c0,28.1,18.5,26.8,18.5,26.8h324.1c0,0,15-0.4,15,17"/>
<path class="st9" d="M9.8,2036.5c0,28.1,18.5,26.8,18.5,26.8l326.8,0.1c0,0,12.5,0.1,12.5,12.5"/>
<linearGradient id="SVGID_37_" gradientUnits="userSpaceOnUse" x1="58.6604" y1="756.565" x2="192.2903" y2="756.565">
	<stop  offset="0" style="stop-color:#0BAF68"/>
	<stop  offset="0.5028" style="stop-color:#FFFFFF"/>
	<stop  offset="1" style="stop-color:#0BAF68"/>
</linearGradient>
<path class="st46" d="M99.9,842.9c-126.6-69,70.1-103.4,95.3-172.6C161,770.3-2.4,785.6,99.9,842.9z"/>
<linearGradient id="SVGID_38_" gradientUnits="userSpaceOnUse" x1="83.3612" y1="890.0817" x2="116.9338" y2="835.8491">
	<stop  offset="0" style="stop-color:#0BAF68"/>
	<stop  offset="0.5778" style="stop-color:#7FD5AF"/>
	<stop  offset="1" style="stop-color:#D0EFE0"/>
</linearGradient>
<path class="st47" d="M132,847.9c0.3-0.1,0.5-0.2,0.8-0.3c0.1,0,0.2-0.1,0.3-0.1c0.2-0.1,0.4-0.1,0.5-0.2c0.1,0,0.2-0.1,0.3-0.1
	c0.2,0,0.3-0.1,0.5-0.1c0.1,0,0.2-0.1,0.3-0.1c0.2,0,0.3-0.1,0.5-0.1c0.1,0,0.2-0.1,0.3-0.1c0.2-0.1,0.5-0.1,0.7-0.2
	c0.1,0,0.2,0,0.2-0.1c0.2,0,0.3-0.1,0.5-0.1c0.1,0,0.2-0.1,0.3-0.1c0.1,0,0.3-0.1,0.4-0.1c0.1,0,0.2-0.1,0.4-0.1
	c0.1,0,0.2-0.1,0.4-0.1c0.1,0,0.3-0.1,0.4-0.1c0.1,0,0.2,0,0.3-0.1c0.1,0,0.3-0.1,0.4-0.1c0,0,0,0,0.1,0c0.4-0.1,0.7-0.1,1-0.2
	c0.1,0,0.1,0,0.2,0c0.2,0,0.3,0,0.5-0.1c0.1,0,0.2,0,0.2,0c0.2,0,0.3,0,0.5-0.1c0.1,0,0.1,0,0.2,0c0.2,0,0.3,0,0.5-0.1
	c0,0,0.1,0,0.1,0c0.6-0.1,1.2-0.1,1.7-0.1c0,0,0,0,0,0c0.2,0,0.4,0,0.5,0c0,0,0.1,0,0.1,0c0.2,0,0.4,0,0.5,0c0,0,0,0,0.1,0
	c1,0,1.9,0.1,2.8,0.2c0,0,0,0,0,0c1.7,0.2,3.2,0.7,4.7,1.3c0,0,0,0,0.1,0c0.2,0.1,0.4,0.2,0.6,0.3c0.1,0,0.1,0.1,0.2,0.1
	c0.2,0.1,0.4,0.2,0.7,0.4l0,0l-26-17l-0.1-0.1c-0.1-0.1-0.2-0.1-0.2-0.2c-0.8-0.4-5.8-3-12.2-2.9c-4.4,0.1-9.2,1-14.1,2.8
	c-41.4,15.5-60.8,54.5-65.6,65.4c-0.6,1.5,0.5,3.1,2.1,3C46.4,898,70.9,891.8,132,847.9C131.9,847.9,131.9,847.9,132,847.9
	L132,847.9z"/>
<linearGradient id="SVGID_39_" gradientUnits="userSpaceOnUse" x1="135.8421" y1="1048.3239" x2="87.8806" y2="1050.0067">
	<stop  offset="0" style="stop-color:#0BAF68"/>
	<stop  offset="0.6561" style="stop-color:#AEE4CD"/>
	<stop  offset="1" style="stop-color:#FFFFFF"/>
</linearGradient>
<path class="st48" d="M149,932.2l-12.2,33.3c-23.6,58.7-33.8,187.1-35,230.8c0,0.1,0,0.2,0,0.3c-0.8,31.6-4.7,32.2,2.2,55.5
	c0,0,0,0,0,0s-11.1-106.1-15.3-186.3c-0.1-1.5-0.2-3.1-0.2-4.6c0,0,0,0,0-0.1c0,0,0,0,0,0c-1.7-47.4,13-99.9,26-144.1
	c6.5-22.4,12.6-42.6,15.9-59.1c0.2-1.1,0.4-2.1,0.6-3.2c0.4-2.4,0.8-4.7,1-6.8c0,0,0,0,0.1,0c7.6-2.5,14.4-3.3,19.6-1.6l3.6,1.7
	c5.7,3.8,8.7,12.1,7.7,26.7c-0.1,1.4-0.2,2.9-0.4,4.5c0,0.1,0,0.1,0,0.2c0,0.2,0,0.4-0.1,0.6c-1.5,12.6-12.8,50.9-12.8,50.9
	L149,932.2z"/>
<linearGradient id="SVGID_40_" gradientUnits="userSpaceOnUse" x1="36.4931" y1="866.1634" x2="139.5102" y2="866.1634">
	<stop  offset="0" style="stop-color:#D0EFE0"/>
	<stop  offset="0.7822" style="stop-color:#80D5AF"/>
	<stop  offset="1" style="stop-color:#69CEA1"/>
</linearGradient>
<path class="st49" d="M139,836.4c0,0-18.8-16.1-102,61"/>
<linearGradient id="SVGID_41_" gradientUnits="userSpaceOnUse" x1="340.6268" y1="603.549" x2="305.143" y2="601.7425">
	<stop  offset="0" style="stop-color:#0BAF68"/>
	<stop  offset="0.6561" style="stop-color:#AEE4CD"/>
	<stop  offset="1" style="stop-color:#FFFFFF"/>
</linearGradient>
<circle class="st50" cx="325.3" cy="602.8" r="15.8"/>
<path class="st51" d="M334.9,614.8c0.9-0.7,2.1-1.1,3.2-1c1.2,0,2.3,0.4,3.3,0.8c2.7,1.1,5.2,3,6.3,5.7c0.2,0.5,0.3,1,0.6,1.5
	c0.3,0.5,0.7,1,0.6,1.6"/>
<linearGradient id="SVGID_42_" gradientUnits="userSpaceOnUse" x1="335.7992" y1="610.1026" x2="348.0492" y2="610.1026">
	<stop  offset="0" style="stop-color:#0BAF68"/>
	<stop  offset="0.6561" style="stop-color:#AEE4CD"/>
	<stop  offset="1" style="stop-color:#FFFFFF"/>
</linearGradient>
<path class="st52" d="M339.8,598c5.4,8.8,7.9,16.8,8.3,24.3c-0.1-0.1-0.1-0.2-0.2-0.3c-0.3-0.5-0.4-1-0.6-1.5
	c-1.1-2.7-3.6-4.6-6.2-5.7c-1.1-0.4-2.2-0.8-3.3-0.8c-0.6,0-1.3,0.1-1.9,0.3c3-2.9,4.8-6.9,4.8-11.3
	C340.6,601.2,340.3,599.5,339.8,598z"/>
<path class="st9" d="M204.8,764.9c-2.6,8.3-2.6,17.3,0,25.6c1,3.3,2.4,6.4,3.8,9.5c6.6,13.9,15.9,27.5,30,33.5"/>
<g id="XMLID_1_">
	<g>
		<g>
			
				<linearGradient id="SVGID_43_" gradientUnits="userSpaceOnUse" x1="9.4513" y1="284.9744" x2="49.1004" y2="282.4703" gradientTransform="matrix(1 0 0 1 0 -18.6765)">
				<stop  offset="0" style="stop-color:#0BAF68"/>
				<stop  offset="0.6561" style="stop-color:#AEE4CD"/>
				<stop  offset="1" style="stop-color:#FFFFFF"/>
			</linearGradient>
			<path class="st53" d="M-0.6,102.6C54.9,203.9,58.1,300.1,46,419.2c-1.4,13.9-22.3,12.4-21.6-1.5C28.1,348.8,75.5,266.3-0.6,102.6
				z"/>
		</g>
	</g>
	<g>
		<g>
			<radialGradient id="SVGID_44_" cx="25.5587" cy="265.7876" r="116.8596" gradientUnits="userSpaceOnUse">
				<stop  offset="0" style="stop-color:#FFFFFF"/>
				<stop  offset="0.3439" style="stop-color:#AEE4CD;stop-opacity:0.6561"/>
				<stop  offset="1" style="stop-color:#0BAF68;stop-opacity:0"/>
			</radialGradient>
			<path class="st54" d="M-0.6,102.6C54.9,203.9,58.1,300.1,46,419.2c-1.4,13.9-22.3,12.4-21.6-1.5C28.1,348.8,75.5,266.3-0.6,102.6
				z"/>
		</g>
	</g>
</g>
<path class="st9" d="M-0.6,102.6c134.7,245.8-42.6,508,30.9,789.1c9.5,36.2,59,43.4,78.1,24.7c24.9-24.5,69,35.7,108.9,26.1"/>
<path class="st9" d="M363.8,2309.5l-1.5,9.3c-1.4,8.9-2.1,17.9-2.1,27V2736"/>
<circle class="st37" cx="203.9" cy="2400" r="3.6"/>
<linearGradient id="SVGID_45_" gradientUnits="userSpaceOnUse" x1="427.5346" y1="2069.2842" x2="448.7798" y2="2066.22" gradientTransform="matrix(0.8804 -0.4742 0.4742 0.8804 -1028.9236 724.6323)">
	<stop  offset="0" style="stop-color:#73C9A7"/>
	<stop  offset="0.4193" style="stop-color:#AFE0CD"/>
	<stop  offset="1" style="stop-color:#FFFFFF"/>
</linearGradient>
<path class="st55" d="M346.8,2331.3c-2.5,3.9-4.2,9.4-14.2,14.1c-0.7,0.3-1.4,1.2-1.4,1.2s-0.6-0.9-0.7-0.9
	c-0.3-0.4-0.5-0.7-0.7-1.1c0,0,0,0,0,0c-0.4-0.6-0.7-1.2-0.9-1.7c0,0,0,0,0,0c0-0.1-0.1-0.2-0.1-0.3c0,0,0,0,0-0.1
	c0-0.1-0.1-0.2-0.1-0.3c0,0,0,0,0,0c-0.1-0.3-0.2-0.6-0.2-0.9c0,0,0,0,0-0.1c0-0.1,0-0.2,0-0.2c0,0,0-0.1,0-0.1c0-0.1,0-0.2,0-0.2
	c0,0,0-0.1,0-0.1c0-0.1,0-0.1,0-0.2c0,0,0,0,0,0l0.1-1.2c0.5-2,4.6-1.1,7.1-3.8C336.8,2333.8,337.5,2330.4,346.8,2331.3z"/>
<path class="st9" d="M367.1,2289.2c0,36.4-25.3,44.2-38.1,56.6"/>
<linearGradient id="SVGID_46_" gradientUnits="userSpaceOnUse" x1="429.8344" y1="2088.4714" x2="438.6341" y2="2074.2563" gradientTransform="matrix(0.8804 -0.4742 0.4742 0.8804 -1028.9236 724.6323)">
	<stop  offset="0" style="stop-color:#73C9A7"/>
	<stop  offset="0.4193" style="stop-color:#AFE0CD"/>
	<stop  offset="1" style="stop-color:#FFFFFF"/>
</linearGradient>
<path class="st56" d="M325.9,2348.4l2.4-9.1h0c0,0.1,0,0.2-0.1,0.3c0,0,0,0.1,0,0.1c0,0.1,0,0.2,0,0.2c0,0,0,0.1,0,0.1
	c0,0.1,0,0.2,0,0.3c0,0,0,0,0,0c0,0.1,0,0.1,0,0.2c0,0.1,0,0.1,0,0.2c0,0.1,0,0.1,0,0.2c0,0.1,0,0.1,0,0.2c0,0.1,0,0.1,0,0.2
	c0,0.1,0,0.1,0,0.2c0,0.1,0,0.1,0,0.2c0,0.1,0.1,0.2,0.1,0.3c0,0.1,0,0.1,0.1,0.2c0,0.1,0,0.1,0.1,0.2c0,0.1,0,0.1,0.1,0.2
	c0,0.1,0.1,0.1,0.1,0.2c0,0.1,0,0.1,0.1,0.2c0,0.1,0.1,0.1,0.1,0.2c0,0.1,0,0.1,0.1,0.2c0,0.1,0.1,0.2,0.1,0.3c0,0,0,0.1,0.1,0.1
	c0.1,0.1,0.1,0.3,0.2,0.4c0,0,0.1,0.1,0.1,0.1c0.1,0.1,0.1,0.2,0.2,0.3c0,0.1,0.1,0.1,0.1,0.2c0.1,0.1,0.1,0.2,0.2,0.3
	c0,0.1,0.1,0.1,0.1,0.2c0.1,0.1,0.1,0.2,0.2,0.3c0,0,0.1,0.1,0.1,0.1c0.1,0.1,0.2,0.3,0.3,0.4l0,0c0,0,0,0,0,0
	c6.5,8.8,23.6,22.8,23.6,22.8s-18.9-3.4-25.8-12.5c-1-1.3-1.7-2.5-2.1-3.8c-0.6-1.8-0.4-3.5-0.3-3.8
	C325.9,2348.5,325.9,2348.4,325.9,2348.4L325.9,2348.4z"/>
<linearGradient id="SVGID_47_" gradientUnits="userSpaceOnUse" x1="55.9316" y1="2779.2759" x2="79.1835" y2="2785.5603">
	<stop  offset="0" style="stop-color:#0BAF68"/>
	<stop  offset="0.3131" style="stop-color:#7FD5AF"/>
	<stop  offset="0.5419" style="stop-color:#D0EFE0"/>
	<stop  offset="1" style="stop-color:#D0EFE0"/>
</linearGradient>
<path class="st57" d="M24,2756.7c36.5,34.1,60.6,20.6,65.8,16.9C68.4,2812.6,45.9,2795.3,24,2756.7z"/>
<linearGradient id="SVGID_48_" gradientUnits="userSpaceOnUse" x1="51.8941" y1="2778.772" x2="61.5301" y2="2752.7969">
	<stop  offset="0" style="stop-color:#0BAF68"/>
	<stop  offset="0.4545" style="stop-color:#AEE4CD"/>
	<stop  offset="0.6927" style="stop-color:#FFFFFF"/>
	<stop  offset="1" style="stop-color:#0BAF68"/>
</linearGradient>
<path class="st58" d="M89.8,2773.6c-5.2,3.7-29.3,17.2-65.8-16.9l0,0v0c23.2-4.2,51.8,18.1,66.2,16.1
	C90.1,2773,89.9,2773.3,89.8,2773.6z"/>
<linearGradient id="SVGID_49_" gradientUnits="userSpaceOnUse" x1="54.2636" y1="2772.0305" x2="58.7673" y2="2766.27">
	<stop  offset="0" style="stop-color:#0BAF68"/>
	<stop  offset="0.6561" style="stop-color:#AEE4CD"/>
	<stop  offset="1" style="stop-color:#FFFFFF"/>
</linearGradient>
<circle class="st59" cx="57.6" cy="2767.7" r="4.7"/>
</svg>
