<svg xmlns="http://www.w3.org/2000/svg" viewBox="0 0 29.78 29.78"><defs><style>.cls-1{fill:#143011;fill-rule:evenodd;}</style></defs><g id="Warstwa_2" data-name="Warstwa 2"><g id="Warstwa_1-2" data-name="Warstwa 1"><path class="cls-1" d="M10.72,1.79A1.79,1.79,0,0,1,12.51,0,11.91,11.91,0,0,1,24.42,11.91a1.79,1.79,0,1,1-3.57,0,8.34,8.34,0,0,0-8.34-8.34A1.79,1.79,0,0,1,10.72,1.79Z"/><path class="cls-1" d="M19.06,28a1.78,1.78,0,0,1-1.78,1.78A11.92,11.92,0,0,1,5.36,17.87a1.79,1.79,0,0,1,3.58,0,8.33,8.33,0,0,0,8.34,8.34A1.79,1.79,0,0,1,19.06,28Z"/><path class="cls-1" d="M1.79,19.06A1.79,1.79,0,0,1,0,17.28,11.92,11.92,0,0,1,11.91,5.36a1.79,1.79,0,0,1,0,3.58,8.34,8.34,0,0,0-8.34,8.34A1.78,1.78,0,0,1,1.79,19.06Z"/><path class="cls-1" d="M28,10.72a1.79,1.79,0,0,1,1.78,1.79A11.91,11.91,0,0,1,17.87,24.42a1.79,1.79,0,1,1,0-3.57,8.33,8.33,0,0,0,8.34-8.34A1.79,1.79,0,0,1,28,10.72Z"/></g></g></svg>