<svg xmlns="http://www.w3.org/2000/svg" viewBox="0 0 30.52 43.91"><defs><style>.cls-1{font-size:8px;font-family:BebasNeuePro-Middle, Bebas Neue Pro;letter-spacing:0.03em;}.cls-1,.cls-2{fill:#143011;}</style></defs><g id="Warstwa_2" data-name="Warstwa 2"><g id="Warstwa_1-2" data-name="Warstwa 1"><text class="cls-1" transform="translate(9 42.22)">Email</text><path class="cls-2" d="M29.17,21.17H1.35A1.36,1.36,0,0,1,0,19.82V1.35A1.36,1.36,0,0,1,1.35,0H29.17a1.36,1.36,0,0,1,1.35,1.35V19.82A1.36,1.36,0,0,1,29.17,21.17ZM2.7,18.47H27.82V2.7H2.7Z"/><path class="cls-2" d="M15.26,12.73a1.34,1.34,0,0,1-.79-.26L.56,2.45A1.35,1.35,0,0,1,2.14.26L15.26,9.71,28.38.26A1.35,1.35,0,0,1,30,2.45l-13.91,10A1.38,1.38,0,0,1,15.26,12.73Z"/><path class="cls-2" d="M28.86,21.17a1.35,1.35,0,0,1-1-.43L17.73,9.8a1.35,1.35,0,1,1,2-1.83L29.85,18.9a1.36,1.36,0,0,1-.08,1.91A1.33,1.33,0,0,1,28.86,21.17Z"/><path class="cls-2" d="M1.35,21.17a1.33,1.33,0,0,1-.93-.38,1.36,1.36,0,0,1,0-1.91L10.82,8a1.35,1.35,0,0,1,1.95,1.87L2.33,20.75A1.35,1.35,0,0,1,1.35,21.17Z"/></g></g></svg>