<svg xmlns="http://www.w3.org/2000/svg" viewBox="0 0 23.38 23.37"><defs><style>.cls-1{fill:#143011;}</style></defs><g id="Warstwa_2" data-name="Warstwa 2"><g id="Warstwa_1-2" data-name="Warstwa 1"><path class="cls-1" d="M8.3,7.74c1.43,0,2.8,0,4.17,0,.18,0,.45.3.51.51a4.79,4.79,0,0,1,0,1.08c.12,0,.21,0,.25-.08C14.9,7.34,17,7,19.34,7.52A4.51,4.51,0,0,1,23,11.6,32.47,32.47,0,0,1,23.36,16c.05,2.16,0,4.32,0,6.47,0,.68-.23.91-.89.88-1.1,0-2.21,0-3.31,0-.66,0-.84-.25-.84-.85,0-2.64,0-5.29,0-7.93-.06-2.08-.79-2.87-2.46-2.86s-2.6,1.08-2.63,3c0,2.47,0,5,0,7.43,0,1.18,0,1.18-1.21,1.18-1,0-2.05,0-3.07,0-.46,0-.69-.12-.69-.64,0-4.85,0-9.7,0-14.55A2.54,2.54,0,0,1,8.3,7.74Z"/><path class="cls-1" d="M.35,15.48c0-2.29,0-4.58,0-6.87,0-.65.16-.92.86-.89,1.1,0,2.21,0,3.31,0,.67,0,.89.18.88.86,0,3,0,6,0,9,0,1.62,0,3.24,0,4.85,0,.66-.21.91-.89.88-1.1,0-2.21,0-3.31,0-.64,0-.85-.23-.84-.85C.37,20.16.35,17.82.35,15.48Z"/><path class="cls-1" d="M2.85,5.74A2.86,2.86,0,0,1,0,2.85,3,3,0,0,1,2.94,0,3,3,0,0,1,5.75,2.89,2.87,2.87,0,0,1,2.85,5.74Z"/></g></g></svg>