<svg xmlns="http://www.w3.org/2000/svg" viewBox="0 0 52.44 33.11"><defs><style>.cls-1{fill:none;stroke:#0baf68;stroke-linecap:round;stroke-linejoin:round;}.cls-2{fill:#0baf68;}</style></defs><g id="Warstwa_2" data-name="Warstwa 2"><g id="icons"><path class="cls-1" d="M2.16,12.25A30.86,30.86,0,0,1,26.23.5,30.86,30.86,0,0,1,50.3,12.25"/><path class="cls-1" d="M2.16,20.86A31.31,31.31,0,0,0,26.29,32.61a30.65,30.65,0,0,0,24-11.75"/><path class="cls-2" d="M1.69,15.86a.7.7,0,1,1-.69.69.69.69,0,0,1,.69-.69m0-1a1.7,1.7,0,1,0,1.69,1.69,1.69,1.69,0,0,0-1.69-1.69Z"/><path class="cls-2" d="M50.75,15.86a.7.7,0,1,1-.69.69.69.69,0,0,1,.69-.69m0-1a1.7,1.7,0,1,0,1.69,1.69,1.69,1.69,0,0,0-1.69-1.69Z"/><line class="cls-1" x1="24.98" y1="9.24" x2="24.98" y2="23.87"/><line class="cls-1" x1="27.48" y1="9.24" x2="27.48" y2="23.87"/><polyline class="cls-1" points="29.79 25.37 26.23 28.09 22.67 25.37"/><polyline class="cls-1" points="50.51 9.93 50.51 12.49 47.96 11.86"/><polyline class="cls-1" points="48.24 20.83 50.75 20.28 50.67 22.91"/></g></g></svg>