<svg xmlns="http://www.w3.org/2000/svg" viewBox="0 0 43.04 38.82"><defs><style>.cls-1{fill:#0baf68;}.cls-2,.cls-3{fill:none;stroke-linecap:round;stroke-linejoin:round;}.cls-2{stroke:#fff;}.cls-3{stroke:#0baf68;}</style></defs><g id="Warstwa_2" data-name="Warstwa 2"><g id="icons"><path class="cls-1" d="M22.14,38.36A19.2,19.2,0,0,1,22,36.22a3.38,3.38,0,0,0-.8-2.24c-.32-.37-.64-.72-1-1.08a.78.78,0,0,0-.73-.26c-.58.07-1.16.15-1.74.17a4.17,4.17,0,0,1-3.69-1.69,2.94,2.94,0,0,1-.56-1.58c0-.34-.06-.68-.08-1a1.16,1.16,0,0,0-.26-.73,1.58,1.58,0,0,1-.35-1.32.78.78,0,0,0-.17-.66,1.57,1.57,0,0,1-.36-1.28c0-.3.06-.6.12-.89s0-.26-.21-.27-.5,0-.75-.09a1.8,1.8,0,0,1-1.34-2.53,3.31,3.31,0,0,1,.59-.94,9.46,9.46,0,0,0,1.94-3.73,21.79,21.79,0,0,0,.7-3.58,12,12,0,0,1,2-5.49A11.84,11.84,0,0,1,19,3.56,16.74,16.74,0,0,1,25.8,1.25c.71-.09,1.43-.09,2.14-.13a19.11,19.11,0,0,1,8.37,1.95,12.27,12.27,0,0,1,4.85,4.07,9.49,9.49,0,0,1,1.51,4.07A41.13,41.13,0,0,1,43,15.64a8.59,8.59,0,0,1-1.17,4.59c-.83,1.49-1.66,3-2.46,4.48a17.42,17.42,0,0,0-2,6.45,33.1,33.1,0,0,0,0,3.36l0,.85A19.2,19.2,0,0,1,22.14,38.36Z"/><path class="cls-2" d="M20.63,1.37a14.24,14.24,0,0,1,4,2,11.87,11.87,0,0,1,3.63,3.46,12.09,12.09,0,0,1,2,5.48,21.09,21.09,0,0,0,.7,3.59,9.36,9.36,0,0,0,1.94,3.72,3.22,3.22,0,0,1,.59,1,1.79,1.79,0,0,1-1.34,2.52c-.25.05-.5.06-.75.09s-.25.07-.21.28.07.59.12.88a1.55,1.55,0,0,1-.36,1.28.79.79,0,0,0-.17.66,1.61,1.61,0,0,1-.35,1.33,1.12,1.12,0,0,0-.26.72c0,.34,0,.68-.08,1a2.91,2.91,0,0,1-.56,1.58,4.15,4.15,0,0,1-3.69,1.69c-.58,0-1.16-.1-1.74-.17a.83.83,0,0,0-.73.26c-.33.36-.65.72-1,1.09a3.36,3.36,0,0,0-.8,2.23,19.06,19.06,0,0,1-.13,2.14"/><path class="cls-3" d="M6.17,35.08a7,7,0,0,1,0-.79,17.15,17.15,0,0,0,0-3.36,17.43,17.43,0,0,0-2-6.44C3.33,23,2.5,21.49,1.67,20A8.61,8.61,0,0,1,.5,15.42,40.92,40.92,0,0,1,.87,11,9.53,9.53,0,0,1,2.38,6.91,12.27,12.27,0,0,1,7.23,2.84,19.82,19.82,0,0,1,15.63.5a18.42,18.42,0,0,1,5.29.78"/></g></g></svg>