<svg xmlns="http://www.w3.org/2000/svg" xmlns:xlink="http://www.w3.org/1999/xlink" viewBox="0 0 369.2 2693.14"><defs><style>.cls-1{fill:url(#linear-gradient);}.cls-2{fill:url(#linear-gradient-2);}.cls-3{fill:url(#linear-gradient-3);}.Graphic-Style-14{fill:url(#linear-gradient-4);}.cls-4{fill:url(#linear-gradient-7);}.cls-5{fill:url(#linear-gradient-8);}.cls-6{fill:url(#linear-gradient-9);}.cls-7{fill:url(#linear-gradient-10);}.cls-15,.cls-16,.cls-17,.cls-18,.cls-19,.cls-20,.cls-21,.cls-22,.cls-23,.cls-24,.cls-25,.cls-35,.cls-36,.cls-37,.cls-43,.cls-45,.cls-8{fill:none;}.cls-35,.cls-36,.cls-37,.cls-8{stroke:#0baf68;}.cls-15,.cls-16,.cls-17,.cls-18,.cls-19,.cls-20,.cls-21,.cls-22,.cls-23,.cls-24,.cls-25,.cls-35,.cls-43,.cls-8{stroke-miterlimit:10;}.cls-8{stroke-width:0.5px;}.cls-9{fill:url(#linear-gradient-11);}.cls-10{fill:url(#linear-gradient-12);}.cls-11{fill:url(#linear-gradient-13);}.cls-12{fill:url(#radial-gradient);}.cls-13{fill:url(#radial-gradient-2);}.cls-14{fill:url(#radial-gradient-3);}.cls-15{stroke:#beff03;}.cls-16{stroke:#c5ff1f;stroke-width:0.92px;}.cls-17{stroke:#ccff3b;stroke-width:0.83px;}.cls-18{stroke:#d4ff57;stroke-width:0.75px;}.cls-19{stroke:#dbff73;stroke-width:0.67px;}.cls-20{stroke:#e2ff8f;stroke-width:0.58px;}.cls-21{stroke:#e9ffab;stroke-width:0.5px;}.cls-22{stroke:#f1ffc7;stroke-width:0.42px;}.cls-23{stroke:#f8ffe3;stroke-width:0.33px;}.cls-24,.cls-25{stroke:#fff;}.cls-24{stroke-width:0.25px;}.cls-26{fill:url(#linear-gradient-14);}.cls-27{fill:url(#linear-gradient-15);}.cls-28{fill:url(#radial-gradient-4);}.cls-29{fill:url(#linear-gradient-16);}.cls-30{fill:url(#linear-gradient-17);}.cls-31{fill:url(#radial-gradient-5);}.cls-32{fill:url(#radial-gradient-6);}.Graphic-Style-10{fill:url(#linear-gradient-18);}.cls-33{fill:url(#linear-gradient-19);}.Graphic-Style-2{fill:url(#linear-gradient-20);}.cls-34{fill:#0baf68;}.cls-35,.cls-36,.cls-37,.cls-43{stroke-linecap:round;}.cls-35,.cls-36{stroke-width:4px;}.cls-36,.cls-37{stroke-linejoin:round;}.cls-37{stroke-width:10px;}.cls-38{fill:url(#linear-gradient-21);}.cls-39{fill:url(#linear-gradient-22);}.cls-40{fill:url(#linear-gradient-23);}.cls-41{fill:url(#linear-gradient-24);}.Graphic-Style-15{fill:url(#linear-gradient-25);}.Graphic-Style-11{fill:url(#linear-gradient-26);}.Graphic-Style-25{fill:url(#linear-gradient-27);}.cls-42{fill:url(#linear-gradient-28);}.cls-43{stroke:url(#linear-gradient-29);}.cls-44{fill:url(#linear-gradient-30);}.cls-46{fill:url(#linear-gradient-31);}.cls-47{fill:url(#linear-gradient-32);}.cls-48{fill:url(#radial-gradient-7);}.cls-49{fill:url(#linear-gradient-33);}.cls-50{fill:url(#linear-gradient-34);}.cls-51{fill:url(#linear-gradient-35);}.cls-52{fill:url(#linear-gradient-36);}.cls-53{fill:url(#linear-gradient-37);}</style><linearGradient id="linear-gradient" x1="-148.24" y1="335.22" x2="-173.94" y2="328.5" gradientTransform="translate(331.07 2588) rotate(137.14)" gradientUnits="userSpaceOnUse"><stop offset="0" stop-color="#0baf68"/><stop offset="0.52" stop-color="#75d1a9" stop-opacity="0.46"/><stop offset="0.99" stop-color="#d0efe0" stop-opacity="0"/></linearGradient><linearGradient id="linear-gradient-2" x1="343.5" y1="1799.37" x2="323.63" y2="1806.85" gradientUnits="userSpaceOnUse"><stop offset="0" stop-color="#0baf68"/><stop offset="0.66" stop-color="#aee4cd"/><stop offset="1" stop-color="#fff"/></linearGradient><linearGradient id="linear-gradient-3" x1="331.84" y1="1805.59" x2="350.17" y2="1799.14" xlink:href="#linear-gradient-2"/><linearGradient id="linear-gradient-4" x1="361.82" y1="1860.91" x2="349.93" y2="1867.11" xlink:href="#linear-gradient-2"/><linearGradient id="linear-gradient-7" x1="64.34" y1="1354.6" x2="59.22" y2="1362.16" xlink:href="#linear-gradient-2"/><linearGradient id="linear-gradient-8" x1="132.21" y1="1185.34" x2="57.38" y2="1362.96" gradientUnits="userSpaceOnUse"><stop offset="0" stop-color="#0baf68"/><stop offset="0.35" stop-color="#d0efe0"/><stop offset="0.53" stop-color="#7fd5af"/><stop offset="0.78" stop-color="#0baf68"/><stop offset="1" stop-color="#bde9d4"/></linearGradient><linearGradient id="linear-gradient-9" x1="70.03" y1="1266.11" x2="121.32" y2="1276.37" gradientUnits="userSpaceOnUse"><stop offset="0" stop-color="#0baf68" stop-opacity="0"/><stop offset="0.51" stop-color="#d0efe0"/><stop offset="0.68" stop-color="#8dd9b7" stop-opacity="0.66"/><stop offset="1" stop-color="#0baf68" stop-opacity="0"/></linearGradient><linearGradient id="linear-gradient-10" x1="92.29" y1="1234.41" x2="40.42" y2="1216.22" xlink:href="#linear-gradient-2"/><linearGradient id="linear-gradient-11" x1="235.43" y1="1636.45" x2="263.31" y2="1702.27" gradientUnits="userSpaceOnUse"><stop offset="0" stop-color="#0baf68"/><stop offset="0.39" stop-color="#7fd5af"/><stop offset="0.68" stop-color="#d0efe0"/><stop offset="1" stop-color="#0baf68"/></linearGradient><linearGradient id="linear-gradient-12" x1="163.71" y1="897.37" x2="236.3" y2="753.66" gradientUnits="userSpaceOnUse"><stop offset="0" stop-color="#d0efe0" stop-opacity="0"/><stop offset="0.29" stop-color="#0baf68" stop-opacity="0.8"/><stop offset="0.47" stop-color="#60cb9c" stop-opacity="0.46"/><stop offset="0.71" stop-color="#d0efe0" stop-opacity="0"/><stop offset="1" stop-color="#0baf68" stop-opacity="0.5"/></linearGradient><linearGradient id="linear-gradient-13" x1="215.36" y1="794" x2="274.91" y2="648.79" gradientUnits="userSpaceOnUse"><stop offset="0" stop-color="#d0efe0" stop-opacity="0"/><stop offset="0.51" stop-color="#0baf68" stop-opacity="0.8"/><stop offset="0.71" stop-color="#60cb9c" stop-opacity="0.46"/><stop offset="1" stop-color="#d0efe0" stop-opacity="0"/></linearGradient><radialGradient id="radial-gradient" cx="147.53" cy="760.79" r="61.9" gradientUnits="userSpaceOnUse"><stop offset="0.3" stop-color="#0baf68" stop-opacity="0.8"/><stop offset="0.59" stop-color="#60cb9c" stop-opacity="0.46"/><stop offset="1" stop-color="#d0efe0" stop-opacity="0"/></radialGradient><radialGradient id="radial-gradient-2" cx="306.3" cy="946.67" r="113.14" xlink:href="#radial-gradient"/><radialGradient id="radial-gradient-3" cx="231.57" cy="878.8" r="130.64" xlink:href="#radial-gradient"/><linearGradient id="linear-gradient-14" x1="131.9" y1="560.63" x2="131.52" y2="588.88" gradientUnits="userSpaceOnUse"><stop offset="0" stop-color="#0baf68"/><stop offset="0.58" stop-color="#7fd5af"/><stop offset="1" stop-color="#d0efe0"/></linearGradient><linearGradient id="linear-gradient-15" x1="131.13" y1="599.61" x2="146.04" y2="540.97" xlink:href="#linear-gradient-2"/><radialGradient id="radial-gradient-4" cx="155.12" cy="571.58" r="45.49" gradientUnits="userSpaceOnUse"><stop offset="0" stop-color="#fff"/><stop offset="0.33" stop-color="#b2e6cf" stop-opacity="0.68"/><stop offset="1" stop-color="#0baf68" stop-opacity="0"/></radialGradient><linearGradient id="linear-gradient-16" x1="119.71" y1="637.36" x2="53.04" y2="598.38" xlink:href="#linear-gradient-14"/><linearGradient id="linear-gradient-17" x1="343.95" y1="910.39" x2="271.12" y2="902.91" gradientUnits="userSpaceOnUse"><stop offset="0" stop-color="#0baf68"/><stop offset="0.36" stop-color="#75d1a9" stop-opacity="0.46"/><stop offset="0.69" stop-color="#d0efe0" stop-opacity="0"/><stop offset="1" stop-color="#0baf68" stop-opacity="0.3"/></linearGradient><radialGradient id="radial-gradient-5" cx="313.47" cy="954.49" r="48.89" gradientUnits="userSpaceOnUse"><stop offset="0" stop-color="#0baf68"/><stop offset="0.94" stop-color="#0baf68" stop-opacity="0"/></radialGradient><radialGradient id="radial-gradient-6" cx="320.58" cy="893.71" r="36.69" gradientUnits="userSpaceOnUse"><stop offset="0" stop-color="#fff"/><stop offset="1" stop-color="#d0efe0" stop-opacity="0"/></radialGradient><linearGradient id="linear-gradient-18" x1="256.46" y1="1291.92" x2="282.78" y2="1249.41" xlink:href="#linear-gradient-14"/><linearGradient id="linear-gradient-19" x1="208.33" y1="1209.75" x2="213.11" y2="1184.53" gradientTransform="matrix(1, 0, 0, 1, 0, 0)" xlink:href="#linear-gradient"/><linearGradient id="linear-gradient-20" x1="250.16" y1="1190.73" x2="234.34" y2="1249.66" xlink:href="#linear-gradient-17"/><linearGradient id="linear-gradient-21" x1="22.86" y1="1588.45" x2="-1.5" y2="1599.99" gradientUnits="userSpaceOnUse"><stop offset="0" stop-color="#d0efe0"/><stop offset="0.42" stop-color="#7fd5af"/><stop offset="1" stop-color="#0baf68"/></linearGradient><linearGradient id="linear-gradient-22" x1="27.87" y1="1584.88" x2="65.46" y2="1570.92" xlink:href="#linear-gradient-14"/><linearGradient id="linear-gradient-23" x1="111.38" y1="1374.24" x2="141.57" y2="1364.95" gradientTransform="translate(-418.42 377.65) rotate(-16.13)" xlink:href="#linear-gradient-2"/><linearGradient id="linear-gradient-24" x1="20.13" y1="1592.36" x2="44.47" y2="1583.33" xlink:href="#linear-gradient-14"/><linearGradient id="linear-gradient-25" x1="112.26" y1="1173.21" x2="113.37" y2="1171.42" xlink:href="#linear-gradient-14"/><linearGradient id="linear-gradient-26" x1="59.52" y1="654.07" x2="193.15" y2="654.07" gradientUnits="userSpaceOnUse"><stop offset="0" stop-color="#0baf68"/><stop offset="0.5" stop-color="#fff"/><stop offset="1" stop-color="#0baf68"/></linearGradient><linearGradient id="linear-gradient-27" x1="84.23" y1="787.59" x2="117.8" y2="733.36" xlink:href="#linear-gradient-14"/><linearGradient id="linear-gradient-28" x1="136.71" y1="945.83" x2="88.75" y2="947.51" xlink:href="#linear-gradient-2"/><linearGradient id="linear-gradient-29" x1="37.36" y1="763.67" x2="140.37" y2="763.67" gradientUnits="userSpaceOnUse"><stop offset="0" stop-color="#d0efe0"/><stop offset="0.78" stop-color="#80d5af"/><stop offset="1" stop-color="#69cea1"/></linearGradient><linearGradient id="linear-gradient-30" x1="341.49" y1="501.06" x2="306.01" y2="499.25" xlink:href="#linear-gradient-2"/><linearGradient id="linear-gradient-31" x1="336.66" y1="507.61" x2="348.91" y2="507.61" xlink:href="#linear-gradient-2"/><linearGradient id="linear-gradient-32" x1="10.32" y1="182.48" x2="49.96" y2="179.98" gradientTransform="translate(0 -18.68)" xlink:href="#linear-gradient-2"/><radialGradient id="radial-gradient-7" cx="26.42" cy="163.29" r="116.86" xlink:href="#radial-gradient-4"/><linearGradient id="linear-gradient-33" x1="428.4" y1="1966.79" x2="449.64" y2="1963.73" gradientTransform="translate(-980.21 712.78) rotate(-28.31)" gradientUnits="userSpaceOnUse"><stop offset="0" stop-color="#73c9a7"/><stop offset="0.42" stop-color="#afe0cd"/><stop offset="1" stop-color="#fff"/></linearGradient><linearGradient id="linear-gradient-34" x1="430.7" y1="1985.98" x2="439.5" y2="1971.76" xlink:href="#linear-gradient-33"/><linearGradient id="linear-gradient-35" x1="56.8" y1="2676.78" x2="80.05" y2="2683.07" gradientUnits="userSpaceOnUse"><stop offset="0" stop-color="#0baf68"/><stop offset="0.31" stop-color="#7fd5af"/><stop offset="0.54" stop-color="#d0efe0"/><stop offset="1" stop-color="#d0efe0"/></linearGradient><linearGradient id="linear-gradient-36" x1="52.76" y1="2676.28" x2="62.39" y2="2650.3" gradientUnits="userSpaceOnUse"><stop offset="0" stop-color="#0baf68"/><stop offset="0.45" stop-color="#aee4cd"/><stop offset="0.69" stop-color="#fff"/><stop offset="1" stop-color="#0baf68"/></linearGradient><linearGradient id="linear-gradient-37" x1="55.13" y1="2669.54" x2="59.63" y2="2663.78" xlink:href="#linear-gradient-2"/></defs><g id="Warstwa_2" data-name="Warstwa 2"><g id="art"><path class="cls-1" d="M221,2236.47h0Z"/><path class="cls-2" d="M365.13,1876.6c-46.2,4.91-20.39-96.77-67.94-145.17,0,0,54.92,32.14,64.48,145.12"/><path class="cls-3" d="M365.13,1876.55c-38.72,2.63-16-94.4-64.48-142.66,0,0,54.92,29.68,64.48,142.66"/><circle class="Graphic-Style-14" cx="356.89" cy="1863.48" r="4.77"/><circle class="Graphic-Style-14" cx="352.12" cy="1847.55" r="5.76"/><circle class="Graphic-Style-14" cx="347.83" cy="1830.34" r="7.3"/><path class="cls-4" d="M60.48,1344.47c-6.8-3.5-14.73,2.79-14.73,2.79.22.1,16.22,27.23,34.33,18.9C80.08,1366.16,69.67,1349.22,60.48,1344.47Z"/><path class="cls-5" d="M111.92,1176.37a2.38,2.38,0,0,0-3.11,2c-5.13,40.44-22,90.19-51.88,148.74-4,7.83-6.63,12-10.53,20.18,39.28-20.55,30,126.63,67.12-168.33a2.39,2.39,0,0,0-1.6-2.56Z"/><path class="cls-6" d="M111.92,1176.37a2.38,2.38,0,0,0-3.11,2c-5.13,40.44-22,90.19-51.88,148.74-4,7.83-6.63,12-10.53,20.18,39.28-20.55,30,126.63,67.12-168.33a2.39,2.39,0,0,0-1.6-2.56Z"/><path class="cls-7" d="M110.16,1135.47a227.73,227.73,0,0,1-.75,37.56c-4,40.74-18.31,89.61-49.69,149.38l-.81-.24c-4.32,2.67-10,2.58-14.65.55s-8.39-5.8-11.22-10a41.06,41.06,0,0,1-6.82-21.32c-.5-15.88,6.3-32.72,18.77-42.57C60.85,1236.25,101.41,1236.15,110.16,1135.47Z"/><path class="cls-8" d="M37.86,794.86c-100.39,100.3,202,222.85,3.65,559.68C7.79,1411.8-3.14,1564.86,51.2,1643.28c33.35,48.13,98.7,82,162.55,73,58.81-8.25,146.24,10,153.59,191.66,2.49,61.49.61,278.81.61,278.81"/><path class="cls-9" d="M117.38,1700.86c40.12-25.48,87.14-46.6,166.45-39,41.87,4,43.17-36.75,49.86-84.9a243.39,243.39,0,0,1,7.72-33.45c-7.84,29.91-14.87,88.42,7.71,109.68s-57.39-4.19-70.81,48.45C267.65,1743.51,203.32,1647.7,117.38,1700.86Z"/><path class="cls-8" d="M204.78,2297.51H36.43a26,26,0,0,0-26,25.85C9.89,2401.49.62,2625,26.78,2657"/><path class="cls-8" d="M10.63,2149.18V1934.05c0-173.28,114.3-284.93,261.6-273.08,62,5,48.53-65.78,68.63-116,24.62-61.47,61.78-155.54-49.72-223.34C110.65,1211.9,154.38,1167.37,247,1098.05c71.26-53.32,112.3-114.87,102.24-199.51-1.34-11.28-6.93-25.4-17.67-38.12C325,852.67,316,845.31,307,838.83c-7.53-5.4-32.6-19.13-60.71-32.1-40.06-18.49-85.3-36.6-86.28-36.84"/><path class="cls-8" d="M345.77,807.86c-70.2-84.64-210.2-82.94-113.9-177.19,50.95-49.87,150.28-75.87,106.77-139.15"/><path class="cls-10" d="M196.09,567.77C171.57,700.29,96.41,725.5,284.65,773.89c124.64,32.05,90.22,152.71,5.46,197.05,151.73-127.18-52-153.75-189.38-230.64C-1.61,683,161.9,667.77,196.09,567.77Z"/><path class="cls-11" d="M196.09,567.77C171.57,700.29,96.41,725.5,284.65,773.89c124.64,32.05,90.22,152.71,5.46,197.05,151.73-127.18-52-153.75-189.38-230.64C-1.61,683,161.9,667.77,196.09,567.77Z"/><path class="cls-12" d="M196.09,567.77C171.57,700.29,96.41,725.5,284.65,773.89c124.64,32.05,90.22,152.71,5.46,197.05,151.73-127.18-52-153.75-189.38-230.64C-1.61,683,161.9,667.77,196.09,567.77Z"/><path class="cls-13" d="M196.09,567.77C171.57,700.29,96.41,725.5,284.65,773.89c124.64,32.05,90.22,152.71,5.46,197.05,151.73-127.18-52-153.75-189.38-230.64C-1.61,683,161.9,667.77,196.09,567.77Z"/><path class="cls-14" d="M196.09,567.77C171.57,700.29,96.41,725.5,284.65,773.89c124.64,32.05,90.22,152.71,5.46,197.05,151.73-127.18-52-153.75-189.38-230.64C-1.61,683,161.9,667.77,196.09,567.77Z"/><path class="cls-15" d="M134.41,758.34C-32.55,686,81.51,576,81.51,576"/><path class="cls-16" d="M94.35,575.29C92.46,586.21-19.16,689,137.28,757.81"/><path class="cls-17" d="M107.2,574.63c-3.79,21.83-113,117.4,33,182.64"/><path class="cls-18" d="M120.05,574C114.37,606.7,7.63,695.07,143,756.73"/><path class="cls-19" d="M132.89,573.29C125.32,617,21,698.1,145.88,756.19"/><path class="cls-20" d="M145.74,572.63c-9.46,54.57-111.32,128.51,3,183"/><path class="cls-21" d="M158.58,572c-11.35,65.49-110.76,132.21-7,183.15"/><path class="cls-22" d="M171.43,571.3c-13.24,76.39-110.22,135.91-17,183.28"/><path class="cls-23" d="M184.28,570.63C169.14,657.94,74.61,710.24,157.35,754"/><path class="cls-24" d="M197.12,570c-17,98.23-109.12,143.32-36.9,183.54"/><path class="cls-25" d="M134.41,758.34C-32.55,686,81.51,576,81.51,576"/><path class="cls-25" d="M94.35,575.29C92.46,586.21-19.16,689,137.28,757.81"/><path class="cls-25" d="M107.2,574.63c-3.79,21.83-113,117.4,33,182.64"/><path class="cls-25" d="M120.05,574C114.37,606.7,7.63,695.07,143,756.73"/><path class="cls-25" d="M132.89,573.29C125.32,617,21,698.1,145.88,756.19"/><path class="cls-25" d="M145.74,572.63c-9.46,54.57-111.32,128.51,3,183"/><path class="cls-25" d="M158.58,572c-11.35,65.49-110.76,132.21-7,183.15"/><path class="cls-25" d="M171.43,571.3c-13.24,76.39-110.22,135.91-17,183.28"/><path class="cls-25" d="M184.28,570.63C169.14,657.94,74.61,710.24,157.35,754"/><path class="cls-25" d="M197.12,570c-17,98.23-109.12,143.32-36.9,183.54"/><path class="cls-26" d="M196.09,567.77c-10.44,21.18-38,31.76-70.21,31.76S68.46,587.3,67.49,570c13.79-8.11,21.46,4.78,57.63,3.49C157.35,572.3,196.09,552.66,196.09,567.77Z"/><path class="cls-27" d="M180.12,592.4c-25.63,22.5-64.9,7.65-85.68,40.81C80.82,654.93,87.3,618,87.3,592.4a46.41,46.41,0,0,1,92.82,0Z"/><path class="cls-28" d="M180.12,592.4c-25.63,22.5-64.9,7.65-85.68,40.81C80.82,654.93,87.3,618,87.3,592.4a46.41,46.41,0,0,1,92.82,0Z"/><path class="cls-29" d="M67.49,570s-102.1,96.12,32.38,169.92l-.54-.23c-72.21-40.22-34.09-68,13.89-98.78,34.25-22,72.25-44.83,82.87-73.1C196.09,567.77,147.57,639.78,67.49,570Z"/><path class="cls-30" d="M310,840.76c.66.74-1.84,10.41,2.24,16.48,4.31,6.43,15,13.17,12.15,29.37-5,28.38-27.53,13.55-27.53,52.8,0,16.48-3.29,26.34-6.71,31.58C364.86,908.76,352.74,871.63,310,840.76Z"/><path class="cls-31" d="M310,840.76c.66.74-1.84,10.41,2.24,16.48,4.31,6.43,15,13.17,12.15,29.37-5,28.38-27.53,13.55-27.53,52.8,0,16.48-3.29,26.34-6.71,31.58C364.86,908.76,352.74,871.63,310,840.76Z"/><path class="cls-32" d="M310,840.76c.66.74-1.84,10.41,2.24,16.48,4.31,6.43,15,13.17,12.15,29.37-5,28.38-27.53,13.55-27.53,52.8,0,16.48-3.29,26.34-6.71,31.58C364.86,908.76,352.74,871.63,310,840.76Z"/><path class="cls-8" d="M309.9,841c-3.23,26.16,17.37,18.29,14.39,45.85-3.1,28.65-39.88,25.35-50.14,19"/><path class="Graphic-Style-10" d="M294.49,1288.8c6.71,34.38,40.94,62.88,56.91,84.62,2.06,2.79-2.06,5.94-4.26,3.25-13.94-17.05-30.35-37.65-55.49-55.21q-16.45-11.49-30.42-22-9.26-6.93-17.47-13.46-4.83-3.84-9.31-7.55-13.5-11.14-23.92-21.18-3.3-3.15-6.31-6.23c-12.09-12.34-20.71-23.49-26.29-33.8-4.58-8.47-7.11-16.37-7.82-23.9C191.37,1228.57,273.46,1181.2,294.49,1288.8Z"/><path class="cls-33" d="M173.08,1170.67a50.49,50.49,0,0,0-3,22.7c13,21.61,49,12.07,79.74,26.4a69.34,69.34,0,0,0-40.51-24.25c-4.6-.88-9.32-1.28-13.79-2.69C195.55,1192.83,173.08,1187.22,173.08,1170.67Z"/><path class="Graphic-Style-2" d="M173.08,1170.67a52.33,52.33,0,0,0-2.68,22.79c.71,7.53,3.24,15.43,7.82,23.9,5.58,10.31,14.2,21.46,26.29,33.8q3,3.08,6.31,6.23,10.45,10.06,23.92,21.18,4.48,3.72,9.31,7.55,8.22,6.53,17.47,13.46,14,10.5,30.42,22c1.95,1.37,3.87,2.73,5.75,4.1-2-1.31-4.13-2.6-6.26-3.9-112.86-68.62-138-111.45-118.35-151.08Z"/><circle class="cls-34" cx="364.86" cy="1470.47" r="2.29"/><circle class="cls-34" cx="358.99" cy="1396.41" r="2.26"/><path class="cls-35" d="M365.62,1420.82c3,24.82.78,35.68.78,35.68"/><path class="cls-36" d="M63.92,1754.51s-26.75,39.85-32.74,61.07"/><line class="cls-37" x1="361.02" y1="2319.96" x2="361.02" y2="2340.34"/><path class="cls-36" d="M18.32,857.18s5,22.19,12.79,37.47"/><path class="cls-38" d="M12.84,1496.46c.06,46.76,9.33,102,38.12,146.54a159,159,0,0,0,16.74,21h0c-73.94,22.84-54.86-167.45-54.86-167.45Z"/><path class="cls-39" d="M12.84,1496.46c1.11,17.91,8.41,48.7,42.37,71.87,49.92,34.06-7.67,65.61,12.59,95.72A160.67,160.67,0,0,1,51,1643c-28.79-44.57-38.08-95.66-38.14-142.42C12.82,1499.2,12.83,1497.83,12.84,1496.46Z"/><path class="cls-40" d="M69.62,1663.58c21.47,12.84,14.25-20.9,0,0Z"/><path class="cls-41" d="M39.54,1580.3c10.24-15.79-21.79-26.28-23-30.76v0c3.52,21-1.17,74.91,25.77,78.77C34.3,1612.25,30.86,1593.67,39.54,1580.3Z"/><circle class="cls-8" cx="217.62" cy="837.06" r="2.97"/><circle class="Graphic-Style-15" cx="112.64" cy="1172.6" r="1.74"/><path class="cls-8" d="M10.63,1987.83c0,28.13,18.49,26.84,18.49,26.84H357.48s11.15-.27,11.15,11.67"/><path class="cls-8" d="M10.63,2041.61c0,28.13,18.49,26.84,18.49,26.84l324.34,0s15.07-.88,15.07,15.08"/><path class="cls-8" d="M10.63,2149.18c0,28.13,18.49,26.84,18.49,26.84H353.27s14.24-.45,14.24,17"/><path class="cls-8" d="M10.63,2092c0,28.13,18.49,26.84,18.49,26.84H353.27s15-.44,15,17"/><path class="cls-8" d="M10.63,1934.05c0,28.13,18.49,26.83,18.49,26.83l326.81.06s12.52.14,12.52,12.52"/><path class="Graphic-Style-11" d="M100.78,740.37c-126.58-69,70.14-103.44,95.31-172.6C161.9,667.77-1.57,683.1,100.78,740.37Z"/><path class="Graphic-Style-25" d="M132.83,745.38l.79-.26.26-.08.53-.16.3-.09.49-.14.3-.09.51-.14.27-.07.74-.2.23-.06.51-.12.35-.08.39-.09.37-.08.36-.08.38-.08.33-.06.41-.08h.06l1-.17.23,0,.45-.06.23,0,.46-.06.2,0,.48,0h.09c.59-.05,1.16-.09,1.72-.11h1.24a22.45,22.45,0,0,1,2.77.19h0a16.76,16.76,0,0,1,4.68,1.3l.06,0,.62.31.16.08.66.38h0l-26-17-.13-.08-.25-.15A26.45,26.45,0,0,0,116.9,725a43.21,43.21,0,0,0-14.08,2.8C61.43,743.23,42,782.29,37.26,793.12a2.12,2.12,0,0,0,2.08,3c7.94-.57,32.42-6.8,93.43-50.69v0Z"/><path class="cls-42" d="M149.83,829.73,137.6,863.07c-23.62,58.67-33.78,187.15-35,230.77v.31c-.84,31.57-4.69,32.22,2.16,55.46h0s-11.12-106-15.32-186.32c-.1-1.53-.17-3.08-.23-4.62v-.07h0c-1.74-47.42,13-99.87,26-144.12,6.55-22.36,12.64-42.63,15.93-59.09.22-1.08.43-2.14.61-3.16.45-2.43.79-4.71,1-6.83l.06,0c7.61-2.5,14.36-3.34,19.6-1.64l3.56,1.72c5.67,3.81,8.66,12.09,7.67,26.68-.09,1.44-.23,3-.4,4.52a1.23,1.23,0,0,0,0,.2c0,.19-.05.38-.07.58-1.51,12.64-12.83,50.94-12.83,50.94Z"/><path class="cls-43" d="M139.87,733.88s-18.75-16.09-102,61"/><circle class="cls-44" cx="326.13" cy="500.27" r="15.77"/><path class="cls-45" d="M335.77,512.33a4.83,4.83,0,0,1,3.23-1,9.53,9.53,0,0,1,3.34.82c2.67,1.12,5.17,3,6.25,5.69a12.88,12.88,0,0,0,.6,1.49c.29.51.71,1,.6,1.6"/><path class="cls-46" d="M340.65,495.46c5.37,8.77,7.94,16.81,8.26,24.29l-.15-.26a12.93,12.93,0,0,1-.61-1.49,11.12,11.12,0,0,0-6.25-5.69,9.53,9.53,0,0,0-3.34-.82,5.31,5.31,0,0,0-1.9.28,15.76,15.76,0,0,0,4-16.31Z"/><path class="cls-8" d="M205.68,662.36a44,44,0,0,0-.05,25.64,69,69,0,0,0,3.82,9.46c6.59,13.85,16,27.46,30.05,33.49"/><path class="cls-47" d="M.22.12c55.5,101.31,58.72,197.47,46.69,316.61-1.41,13.95-22.29,12.45-21.56-1.54C28.94,246.3,76.4,163.8.22.12Z"/><path class="cls-48" d="M.22.12c55.5,101.31,58.72,197.47,46.69,316.61-1.41,13.95-22.29,12.45-21.56-1.54C28.94,246.3,76.4,163.8.22.12Z"/><path class="cls-8" d="M.22.12c134.71,245.78-42.61,508,30.89,789.06,9.45,36.19,59,43.42,78.06,24.67,25-24.54,69,35.74,108.89,26.14"/></g><g id="listeg"><path class="cls-49" d="M347.62,2228.79c-2.51,3.88-4.2,9.4-14.2,14.09a5.19,5.19,0,0,0-1.4,1.21l-.65-.86c-.27-.36-.52-.72-.74-1.07h0a13.39,13.39,0,0,1-.94-1.72l0,0-.12-.29,0-.07c0-.1-.07-.19-.1-.29l0,0a8.27,8.27,0,0,1-.25-.91.13.13,0,0,0,0-.06c0-.09,0-.17,0-.25s0-.07,0-.11l0-.23V2238a1.62,1.62,0,0,1,0-.22v0l.14-1.18c.55-2,4.57-1.13,7.06-3.78C337.63,2231.32,338.38,2227.88,347.62,2228.79Z"/><path class="cls-8" d="M368,2186.74c0,36.43-25.28,44.18-38.06,56.56"/><path class="cls-50" d="M326.77,2245.88l2.37-9.13h0l-.06.32s0,.07,0,.1a1.94,1.94,0,0,0,0,.24s0,.07,0,.1a2.26,2.26,0,0,0,0,.26v.21c0,.06,0,.12,0,.18s0,.12,0,.18l0,.17,0,.18a1.42,1.42,0,0,0,0,.2l0,.17c0,.11.06.22.1.34a1.54,1.54,0,0,0,.05.17c0,.06,0,.13.07.2a1.34,1.34,0,0,0,.07.18,1.67,1.67,0,0,0,.08.2,1.34,1.34,0,0,0,.07.18l.1.22.07.16c0,.09.09.18.14.28s0,.07.05.1l.21.38.08.14.16.26.09.16c0,.08.11.16.16.25a1.3,1.3,0,0,1,.1.15l.19.27.09.13c.09.14.19.27.29.41v0h0c6.5,8.76,23.6,22.8,23.6,22.8s-18.91-3.42-25.76-12.48a14.21,14.21,0,0,1-2.14-3.77,8.19,8.19,0,0,1-.34-3.79.31.31,0,0,0,0-.08Z"/><path class="cls-51" d="M24.88,2654.18c36.46,34.14,60.55,20.64,65.76,17C69.25,2710.15,46.75,2692.77,24.88,2654.18Z"/><path class="cls-52" d="M90.64,2671.13c-5.21,3.69-29.3,17.19-65.76-17h0c23.18-4.2,51.76,18.1,66.21,16.1C90.94,2670.55,90.79,2670.85,90.64,2671.13Z"/><circle class="cls-53" cx="58.48" cy="2665.25" r="4.68"/></g></g></svg>