<svg xmlns="http://www.w3.org/2000/svg" xmlns:xlink="http://www.w3.org/1999/xlink" viewBox="0 0 376.59 1587.44"><defs><style>.Graphic-Style-14{fill:url(#linear-gradient);}.cls-1{fill:url(#linear-gradient-2);}.cls-13,.cls-2,.cls-3,.cls-6,.cls-9{fill:none;}.cls-13,.cls-3,.cls-6,.cls-9{stroke:#0baf68;}.cls-13,.cls-3{stroke-linecap:round;stroke-linejoin:round;}.cls-4{fill:url(#linear-gradient-3);}.cls-5{fill:url(#linear-gradient-4);}.cls-6,.cls-9{stroke-miterlimit:10;}.cls-6{stroke-width:0.4px;}.cls-7{fill:url(#linear-gradient-5);}.cls-16,.cls-8{fill:#fff;}.cls-9{stroke-width:0.5px;}.cls-10{fill:url(#linear-gradient-6);}.Graphic-Style-15{fill:url(#linear-gradient-7);}.cls-11{fill:url(#linear-gradient-8);}.cls-12{fill:url(#linear-gradient-9);}.cls-13{stroke-width:3px;}.cls-14{fill:url(#linear-gradient-10);}.cls-15{fill:#0baf68;}.cls-16{font-size:15px;font-family:BebasNeuePro-Regular;letter-spacing:0.05em;}.cls-17{letter-spacing:0.05em;}.cls-18{letter-spacing:0.05em;}.cls-19{letter-spacing:0.05em;}.cls-20{letter-spacing:0.05em;}.cls-21{letter-spacing:0.05em;}</style><linearGradient id="linear-gradient" x1="312.95" y1="1137.84" x2="219.85" y2="1186.37" gradientUnits="userSpaceOnUse"><stop offset="0" stop-color="#0baf68"/><stop offset="0.66" stop-color="#aee4cd"/><stop offset="1" stop-color="#fff"/></linearGradient><linearGradient id="linear-gradient-2" x1="228.34" y1="1155.34" x2="359.6" y2="1155.34" gradientUnits="userSpaceOnUse"><stop offset="0" stop-color="#0baf68"/><stop offset="0.58" stop-color="#7fd5af"/><stop offset="1" stop-color="#d0efe0"/></linearGradient><linearGradient id="linear-gradient-3" x1="120.64" y1="94.48" x2="95.09" y2="117.32" xlink:href="#linear-gradient-2"/><linearGradient id="linear-gradient-4" x1="150.43" y1="71.73" x2="130.3" y2="95.34" xlink:href="#linear-gradient-2"/><linearGradient id="linear-gradient-5" x1="152.46" y1="364.88" x2="206.75" y2="364.88" xlink:href="#linear-gradient-2"/><linearGradient id="linear-gradient-6" x1="-517.19" y1="1372.93" x2="-508.9" y2="1363.51" gradientTransform="matrix(0.92, 0.38, -0.38, 0.92, 1028.65, -401.96)" xlink:href="#linear-gradient-2"/><linearGradient id="linear-gradient-7" x1="3084.43" y1="610.91" x2="3097.23" y2="590.24" gradientTransform="translate(1854.99 3214.01) rotate(-136.32)" xlink:href="#linear-gradient-2"/><linearGradient id="linear-gradient-8" x1="-503.35" y1="1385.12" x2="-495.06" y2="1375.7" gradientTransform="matrix(0.92, 0.38, -0.38, 0.92, 1028.65, -401.96)" xlink:href="#linear-gradient-2"/><linearGradient id="linear-gradient-9" x1="157.26" y1="608.41" x2="245.07" y2="608.41" xlink:href="#linear-gradient-2"/><linearGradient id="linear-gradient-10" x1="6.7" y1="809.31" x2="82.18" y2="841.82" gradientUnits="userSpaceOnUse"><stop offset="0" stop-color="#0baf68"/><stop offset="0.41" stop-color="#d0efe0"/><stop offset="0.66" stop-color="#7fd5af"/><stop offset="1" stop-color="#0baf68"/></linearGradient></defs><g id="Warstwa_2" data-name="Warstwa 2"><g id="art"><path class="Graphic-Style-14" d="M234.3,1160.05c7.4,1.93,15.27.62,22.59-1.62s14.34-5.4,21.76-7.24c10.77-2.67,22-2.5,33.09-2.32-.48,5.06-4.21,9.2-8.14,12.42a47.8,47.8,0,0,1-22.5,10.55,52.92,52.92,0,0,1-21.12-1.47,160.15,160.15,0,0,1-20.08-7.1,25.25,25.25,0,0,1-6.86-3.65"/><path class="cls-1" d="M359.57,1125l0,.06c-8.72,5.06-13.85,13.26-19.05,21.92l-9.42,15.71c-3,5.06-6.1,10.16-10.15,14.45-12.08,12.77-31.81,16.43-48.82,12s-32.57-16.74-43.82-30.25c10.09,2.39,20,5.19,29.49,8.23C312.33,1184.52,308.57,1098,359.57,1125Z"/><line class="cls-2" x1="325.5" y1="925.6" x2="324.73" y2="926.37"/></g><g id="icons"><circle class="cls-3" cx="232.85" cy="557.16" r="2.82"/><circle class="cls-3" cx="331.92" cy="447.92" r="6.8"/></g><g id="logo"><path class="cls-4" d="M83.8,62.42c19.43,17,57,46.48,97.65,60C89.33,145.5,68.77,89.34,64.19,62.69h.09C70.79,63,77.29,62.75,83.8,62.42Z"/><path class="cls-5" d="M181.91,122.26l-.46.11C140.78,108.9,103.23,79.44,83.8,62.42c12.62-.66,25.25-1.82,37.85-1.05,19.11,1.15,39.31,7.75,50.28,23.44C179.44,95.55,181.63,109.15,181.91,122.26Z"/><path class="cls-6" d="M.2,0a86.58,86.58,0,0,0,19.71,42.2C25.43,48.64,32,54.3,39.73,57.76s16.1,4.58,24.46,4.93h.09c6.51.26,13,.06,19.52-.27"/><path class="cls-6" d="M181.45,122.37l.46-.11"/><path class="cls-6" d="M62.87,49.59a82.48,82.48,0,0,0,1.32,13.1"/><path class="cls-6" d="M70,49.59S75,54.74,83.8,62.42c19.43,17,57,46.48,97.65,60a147.2,147.2,0,0,0,21.64,5.47"/></g><g id="apla"><path class="cls-7" d="M206.75,397.44c-37.9-16.29-65.78-45.78-49.6-60.2C177.92,318.72,198.44,355.59,206.75,397.44Z"/><path class="cls-8" d="M207.47,397.05c-32.38-14.59-58.06-39.71-42.4-48.26C179.79,340.75,202.52,364.7,207.47,397.05Z"/><path class="cls-9" d="M210.84,657.19c-34.7,12.49-108.27-68.28-29.29-135.06a96.85,96.85,0,0,0,33.19-87.45c-7.89-56.07-29.9-120.5-57.49-97.56-47.81,39.76,268.9,205.7,147.65-168.22-27.65-85.29,30.82-95.29,71.52-133.17"/><path class="cls-10" d="M20.81,662.28a17,17,0,0,1-1.88-5.76,8.27,8.27,0,0,1,.69-4.32,5.71,5.71,0,0,1,.9-1.39c1.73-2,4.59-2.55,7.26-2.23,3,6.27,7.51,11.94,10,18.46a17.54,17.54,0,0,1,1.34,9.29,12,12,0,0,1-.47,1.81h0l-.32.82h0a14,14,0,0,1-4.91,5.78,20,20,0,0,0-.78-2C29.51,675.49,24.28,669.36,20.81,662.28Z"/><path class="Graphic-Style-15" d="M26.05,636.68a3.71,3.71,0,0,0-.45.69h0l-.28.68L19.61,652.2h0a5.71,5.71,0,0,1,.9-1.39c1.73-2,4.59-2.55,7.26-2.23a12.33,12.33,0,0,1,1.24.21c3,.68,5.71,2.2,8.62,3.13a22.82,22.82,0,0,0,10,.9c3.63-.47,7.31-2,9.44-4.94,1.89-2.62,2.14-6.51.27-9a3.61,3.61,0,0,1-.45,5,8.77,8.77,0,0,1-6.77,1.59c-6.72-1.19-10.42-8.24-17-10C30.62,634.81,27.62,634.73,26.05,636.68Z"/><path class="cls-11" d="M38.37,679,35,687.48a.5.5,0,0,1-1-.14,14.18,14.18,0,0,0-.58-2.59A14,14,0,0,0,38.37,679Z"/><path class="cls-12" d="M208.23,657.93c-29.48,6.28-75.57-52.07-35-111.77a46.5,46.5,0,0,0-4.78,17.13c-.83,9.83,1.33,20.09,7.07,28.12,4.67,6.52,11.42,11.29,18.53,15s14.66,6.52,21.94,9.9,14.39,7.44,19.93,13.25,9.4,13.56,9.15,21.58-5.21,16.07-12.81,18.64a19.63,19.63,0,0,1-16.82-2.59A18.52,18.52,0,0,1,208.23,657.93Z"/><path class="cls-9" d="M241.82,651.44c.52-7.39-2.76-14.69-7.66-20.24s-11.32-9.56-17.91-12.94-13.46-6.23-19.89-9.93-14.31-8.73-18.62-14.12a54.22,54.22,0,0,1-9.11-17.3"/><path class="cls-9" d="M173.23,546.14c13.5-19.88,51.93-61.32,76.6-29"/><path class="cls-9" d="M210.84,657.19a18.44,18.44,0,0,1-2.61.74c-29.48,6.28-75.57-52.07-35-111.77"/><path class="cls-9" d="M173.23,546.14v0"/><path class="cls-13" d="M133.88,1142.2c8.72,0,35.56,3.7,41.57,4.49"/><path class="cls-14" d="M96.33,828.9a66.08,66.08,0,0,1,22.33,1.49c-39.06,9.45-71,19.88-84.34,17.22-19.56-3.9-25.93-23.32-25.76-47.37a24.07,24.07,0,0,0,4.16,12,53.77,53.77,0,0,0,16.16,15.84,36.61,36.61,0,0,0,10.06,4.59,47.78,47.78,0,0,0,11.87,1.27,150.24,150.24,0,0,0,23.5-1.66C81.65,831.14,88.93,829.49,96.33,828.9Z"/><path class="cls-9" d="M34.6,687.32S8.87,752.8,8.56,800.24c-.17,24,6.2,43.47,25.76,47.37,13.36,2.66,45.28-7.77,84.34-17.22,114.34-27.69,290-47,240.91,294.62-51-27-47.24,59.51-101.74,42.11-9.52-3-19.4-5.84-29.49-8.23-63.7-15.13-143-35.39-186.57,16.56-34.4,41-41,162.58-10.45,412"/><circle class="cls-15" cx="38.3" cy="1180.08" r="2.84"/><circle class="cls-15" cx="45.66" cy="1170.98" r="2.01"/><text class="cls-16" transform="translate(160.35 279.27)">DINA <tspan class="cls-17" x="27.25" y="0">C</tspan><tspan class="cls-18" x="33.72" y="0">A</tspan><tspan class="cls-19" x="40.47" y="0">R</tspan><tspan class="cls-18" x="47.28" y="0">A</tspan><tspan class="cls-20" x="54.03" y="0">B</tspan><tspan class="cls-21" x="60.76" y="0">A</tspan><tspan class="cls-18" x="67.45" y="0">S</tspan></text></g></g></svg>