<svg xmlns="http://www.w3.org/2000/svg" viewBox="0 0 20.58 18.11"><defs><style>.cls-1{fill:#143011;}</style></defs><g id="Warstwa_2" data-name="Warstwa 2"><g id="Warstwa_1-2" data-name="Warstwa 1"><path class="cls-1" d="M20,.41a17.15,17.15,0,0,1-2.21.92.65.65,0,0,1-.72-.17A4,4,0,0,0,11,1.67a5,5,0,0,0-.94,3.47c0,.48,0,.48-.47.43A11.77,11.77,0,0,1,1.75,1.29,1,1,0,0,0,1.39.92,4.81,4.81,0,0,0,1,4.12,4.48,4.48,0,0,0,2.64,6.93a4,4,0,0,1-1.88-.5A4.73,4.73,0,0,0,4.05,11a4.06,4.06,0,0,1-1.8.1,4.46,4.46,0,0,0,1.42,2.2,4.17,4.17,0,0,0,2.47.92A8.3,8.3,0,0,1,0,16.06a2.42,2.42,0,0,0,.24.19,11.35,11.35,0,0,0,14-1.16,13.48,13.48,0,0,0,4.22-10,.91.91,0,0,1,.34-.74,7.21,7.21,0,0,0,1.79-2.13l0,0h0v0c-.16-.06-.28.07-.41.12a5.54,5.54,0,0,1-1.77.42c.18-.15.29-.24.38-.33A3.66,3.66,0,0,0,20,.4l0,0h0S20,.4,20,.41Z"/></g></g></svg>